<svg id="Layer_1" data-name="Layer 1" xmlns="http://www.w3.org/2000/svg" xmlns:xlink="http://www.w3.org/1999/xlink" viewBox="0 0 860 1032"><defs><style>.cls-1,.cls-11,.cls-19,.cls-26,.cls-30,.cls-32,.cls-34,.cls-4,.cls-45,.cls-48,.cls-59,.cls-67,.cls-68{fill:none;}.cls-2,.cls-28{fill:#0d1117;}.cls-3,.cls-33,.cls-7{fill:#fff;}.cls-3,.cls-4{stroke:#fff;}.cls-11,.cls-12,.cls-19,.cls-20,.cls-26,.cls-27,.cls-3,.cls-30,.cls-31,.cls-32,.cls-33,.cls-34,.cls-4,.cls-45,.cls-46,.cls-47,.cls-48,.cls-59,.cls-67,.cls-68,.cls-69{stroke-miterlimit:10;}.cls-29,.cls-5,.cls-7{isolation:isolate;font-size:12px;font-family:ArialMT, Arial;}.cls-6{clip-path:url(#clip-path);}.cls-8{clip-path:url(#clip-path-2);}.cls-9{clip-path:url(#clip-path-3);}.cls-10{clip-path:url(#clip-path-4);}.cls-11,.cls-12{stroke:#008a00;}.cls-12,.cls-43{fill:#008a00;}.cls-13{clip-path:url(#clip-path-5);}.cls-14{clip-path:url(#clip-path-6);}.cls-15{letter-spacing:-0.11em;}.cls-16{clip-path:url(#clip-path-7);}.cls-17{clip-path:url(#clip-path-8);}.cls-18{clip-path:url(#clip-path-9);}.cls-19,.cls-20,.cls-32,.cls-67{stroke:#0050ef;}.cls-20,.cls-41{fill:#0050ef;}.cls-21{fill:#b1ddf0;}.cls-21,.cls-26,.cls-27{stroke:#10739e;}.cls-22{clip-path:url(#clip-path-10);}.cls-23{clip-path:url(#clip-path-11);}.cls-24{clip-path:url(#clip-path-12);}.cls-25{clip-path:url(#clip-path-13);}.cls-26,.cls-32{stroke-dasharray:1 1;}.cls-27{fill:#10739e;}.cls-28,.cls-30,.cls-31{stroke:#1aceae;}.cls-29,.cls-31{fill:#1aceae;}.cls-33,.cls-34{stroke:#6c8ebf;}.cls-35,.cls-69{fill:#fa6800;}.cls-36{clip-path:url(#clip-path-14);}.cls-37{fill:#76608a;}.cls-38{clip-path:url(#clip-path-15);}.cls-39{fill:#6f0000;}.cls-40{clip-path:url(#clip-path-16);}.cls-42{clip-path:url(#clip-path-17);}.cls-44{clip-path:url(#clip-path-18);}.cls-45,.cls-46{stroke:#990;}.cls-46{fill:#990;}.cls-47{fill:#fff2cc;}.cls-47,.cls-48{stroke:#fff2cc;}.cls-49{clip-path:url(#clip-path-19);}.cls-50{clip-path:url(#clip-path-20);}.cls-51{clip-path:url(#clip-path-21);}.cls-52{clip-path:url(#clip-path-22);}.cls-53{clip-path:url(#clip-path-23);}.cls-54{clip-path:url(#clip-path-24);}.cls-55{clip-path:url(#clip-path-25);}.cls-56{clip-path:url(#clip-path-26);}.cls-57{clip-path:url(#clip-path-27);}.cls-58{clip-path:url(#clip-path-28);}.cls-59{stroke:#cc0;}.cls-60{clip-path:url(#clip-path-29);}.cls-61{clip-path:url(#clip-path-30);}.cls-62{clip-path:url(#clip-path-31);}.cls-63{clip-path:url(#clip-path-32);}.cls-64{clip-path:url(#clip-path-33);}.cls-65{clip-path:url(#clip-path-34);}.cls-66{clip-path:url(#clip-path-35);}.cls-67{stroke-dasharray:3 3;}.cls-68,.cls-69{stroke:#fa6800;}</style><clipPath id="clip-path"><rect class="cls-1" x="523.5" y="229.5" width="222" height="34"/></clipPath><clipPath id="clip-path-2"><rect class="cls-1" x="523.5" y="263.5" width="222" height="34"/></clipPath><clipPath id="clip-path-3"><rect class="cls-1" x="523.5" y="297.5" width="222" height="30"/></clipPath><clipPath id="clip-path-4"><rect class="cls-1" x="523.5" y="327.5" width="222" height="32"/></clipPath><clipPath id="clip-path-5"><rect class="cls-1" x="46.5" y="551.5" width="192" height="40"/></clipPath><clipPath id="clip-path-6"><rect class="cls-1" x="46.5" y="591.5" width="192" height="40"/></clipPath><clipPath id="clip-path-7"><rect class="cls-1" x="46.5" y="631.5" width="192" height="40"/></clipPath><clipPath id="clip-path-8"><rect class="cls-1" x="46.5" y="681.5" width="192" height="34"/></clipPath><clipPath id="clip-path-9"><rect class="cls-1" x="46.5" y="715.5" width="192" height="34"/></clipPath><clipPath id="clip-path-10"><rect class="cls-1" x="341.5" y="901.5" width="152" height="26"/></clipPath><clipPath id="clip-path-11"><rect class="cls-1" x="341.5" y="927.5" width="152" height="26"/></clipPath><clipPath id="clip-path-12"><rect class="cls-1" x="341.5" y="953.5" width="152" height="26"/></clipPath><clipPath id="clip-path-13"><rect class="cls-1" x="341.5" y="979.5" width="152" height="26"/></clipPath><clipPath id="clip-path-14"><rect class="cls-1" x="76.5" y="229.5" width="222" height="34"/></clipPath><clipPath id="clip-path-15"><rect class="cls-1" x="76.5" y="263.5" width="222" height="30"/></clipPath><clipPath id="clip-path-16"><rect class="cls-1" x="76.5" y="293.5" width="222" height="32"/></clipPath><clipPath id="clip-path-17"><rect class="cls-1" x="76.5" y="325.5" width="222" height="34"/></clipPath><clipPath id="clip-path-18"><rect class="cls-1" x="76.5" y="359.5" width="222" height="32"/></clipPath><clipPath id="clip-path-19"><rect class="cls-1" x="336.5" y="72.5" width="162" height="26"/></clipPath><clipPath id="clip-path-20"><rect class="cls-1" x="336.5" y="98.5" width="162" height="26"/></clipPath><clipPath id="clip-path-21"><rect class="cls-1" x="586.5" y="551.5" width="212" height="26"/></clipPath><clipPath id="clip-path-22"><rect class="cls-1" x="586.5" y="577.5" width="212" height="26"/></clipPath><clipPath id="clip-path-23"><rect class="cls-1" x="586.5" y="603.5" width="212" height="26"/></clipPath><clipPath id="clip-path-24"><rect class="cls-1" x="586.5" y="633.5" width="212" height="26"/></clipPath><clipPath id="clip-path-25"><rect class="cls-1" x="586.5" y="659.5" width="212" height="26"/></clipPath><clipPath id="clip-path-26"><rect class="cls-1" x="586.5" y="685.5" width="212" height="26"/></clipPath><clipPath id="clip-path-27"><rect class="cls-1" x="321.5" y="551.5" width="192" height="36"/></clipPath><clipPath id="clip-path-28"><rect class="cls-1" x="321.5" y="587.5" width="192" height="36"/></clipPath><clipPath id="clip-path-29"><rect class="cls-1" x="321.5" y="632.5" width="192" height="30"/></clipPath><clipPath id="clip-path-30"><rect class="cls-1" x="321.5" y="662.5" width="192" height="30"/></clipPath><clipPath id="clip-path-31"><rect class="cls-1" x="321.5" y="692.5" width="192" height="30"/></clipPath><clipPath id="clip-path-32"><rect class="cls-1" x="321.5" y="723.5" width="192" height="30"/></clipPath><clipPath id="clip-path-33"><rect class="cls-1" x="321.5" y="753.5" width="192" height="30"/></clipPath><clipPath id="clip-path-34"><rect class="cls-1" x="321.5" y="784.5" width="192" height="30"/></clipPath><clipPath id="clip-path-35"><rect class="cls-1" x="321.5" y="814.5" width="192" height="30"/></clipPath></defs><rect class="cls-2" width="860" height="1032"/><path class="cls-3" d="M519.5,224.5v-26h230v26"/><path class="cls-4" d="M519.5,224.5v130h230v-130"/><path class="cls-4" d="M519.5,224.5h230"/><text class="cls-5" transform="translate(578.96 216)">model_evaluation.py</text><path class="cls-4" d="M519.5,241.5h-20v97h13.63"/><path class="cls-3" d="M518.38,338.5l-7,3.5,1.75-3.5-1.75-3.5Z"/><g class="cls-6"><text class="cls-7" transform="translate(525 242)">+create_y_predict(): file </text></g><path class="cls-4" d="M519.5,275.5h-20v63h13.63"/><path class="cls-3" d="M518.38,338.5l-7,3.5,1.75-3.5-1.75-3.5Z"/><g class="cls-8"><text class="cls-7" transform="translate(525 276)">+get_values(): lists </text></g><path class="cls-4" d="M519.5,307.5h-20v31h13.63"/><path class="cls-3" d="M518.38,338.5l-7,3.5,1.75-3.5-1.75-3.5Z"/><g class="cls-9"><text class="cls-7" transform="translate(525 310)">+show_auc_roc(lists): void</text></g><g class="cls-10"><text class="cls-7" transform="translate(525 340)">+evaluation():void</text></g><path class="cls-11" d="M242.5,693l10,.07V490.5H52.5v-153H66.13"/><path class="cls-12" d="M71.38,337.5l-7,3.5,1.75-3.5L64.38,334Z"/><path class="cls-12" d="M42.5,546.5v-26h200v26"/><path class="cls-11" d="M42.5,546.5v204h200v-204"/><path class="cls-11" d="M42.5,546.5h200"/><text class="cls-7" transform="translate(117.65 538)">model.py</text><g class="cls-13"><text class="cls-7" transform="translate(48 564)">-max_len: int</text></g><g class="cls-14"><text class="cls-7" transform="translate(48 604)">-train_dataset: tf.<tspan class="cls-15" x="90.05" y="0">T</tspan><tspan x="96.05" y="0">ensor</tspan></text></g><g class="cls-16"><text class="cls-7" transform="translate(48 644)">-test_dataset: tf.<tspan class="cls-15" x="86.04" y="0">T</tspan><tspan x="92.04" y="0">ensor</tspan></text></g><path class="cls-11" d="M42.5,671.5h200"/><g class="cls-17"><text class="cls-7" transform="translate(48 694)">+model_bert(): model </text></g><g class="cls-18"><text class="cls-7" transform="translate(48 728)">+model_bert_train(model): weights</text></g><path class="cls-19" d="M582.5,693.5h-10v-193H42.5v-227H66.13"/><path class="cls-20" d="M71.38,273.5l-7,3.5,1.75-3.5L64.38,270Z"/><path class="cls-3" d="M337.5,896.5v-26h160v26"/><path class="cls-4" d="M337.5,896.5v104h160v-104"/><path class="cls-4" d="M337.5,896.5h160"/><text class="cls-5" transform="translate(397.94 888)">Файлы</text><rect class="cls-21" x="337.5" y="896.5" width="160" height="26"/><g class="cls-22"><text class="cls-5" transform="translate(343 914)">test.tsv</text></g><rect class="cls-21" x="337.5" y="922.5" width="160" height="26"/><g class="cls-23"><text class="cls-5" transform="translate(343 940)">train.tsv</text></g><rect class="cls-21" x="337.5" y="948.5" width="160" height="26"/><g class="cls-24"><text class="cls-5" transform="translate(343 966)">vocab.txt</text></g><rect class="cls-21" x="337.5" y="974.5" width="160" height="26"/><g class="cls-25"><text class="cls-5" transform="translate(343 992)">y_predict.txt</text></g><path class="cls-26" d="M337.5,935.5H32.5v-694H66.13"/><path class="cls-27" d="M71.38,241.5l-7,3.5,1.75-3.5L64.38,238Z"/><path class="cls-26" d="M337.5,909.5H32.5v-668H66.13"/><path class="cls-27" d="M71.38,241.5l-7,3.5,1.75-3.5L64.38,238Z"/><rect class="cls-28" x="12.5" y="20.5" width="60" height="20"/><text class="cls-29" transform="translate(17.32 34)">Input text</text><path class="cls-30" d="M42.5,40.5v40H326.13"/><path class="cls-31" d="M331.38,80.5l-7,3.5,1.75-3.5L324.38,77Z"/><path class="cls-32" d="M302.5,339.5h180v-189h40v-44H508.87"/><path class="cls-20" d="M503.62,106.5l7-3.5-1.75,3.5,1.75,3.5Z"/><path class="cls-32" d="M303.5,339.5h40v31h420v-25h-7.63"/><path class="cls-20" d="M750.62,345.5l7-3.5-1.75,3.5,1.75,3.5Z"/><path class="cls-33" d="M72.5,224.5v-26h230v26"/><path class="cls-34" d="M72.5,224.5v162h230v-162"/><path class="cls-34" d="M72.5,224.5h230"/><text class="cls-5" transform="translate(147.65 216)">model_train.py</text><rect class="cls-35" x="72.5" y="224.5" width="230" height="34"/><g class="cls-36"><text class="cls-5" transform="translate(78 242)">+load_data(string): df </text></g><path class="cls-4" d="M302.5,273.5h20v53.86l-12.94,0"/><path class="cls-3" d="M304.31,327.4l7-3.52-1.74,3.51,1.76,3.49Z"/><rect class="cls-37" x="72.5" y="258.5" width="230" height="30"/><g class="cls-38"><text class="cls-7" transform="translate(78 276)">+get_dataset(list): tf.<tspan class="cls-15" x="109.05" y="0">T</tspan><tspan x="115.05" y="0">ensor</tspan></text></g><path class="cls-4" d="M302.5,304.5h20v23H303.07l6.26-.07"/><path class="cls-3" d="M304.08,327.41l7-3.47-1.77,3.49,1.73,3.51Z"/><rect class="cls-39" x="72.5" y="288.5" width="230" height="32"/><g class="cls-40"><text class="cls-5" transform="translate(78 306)">+tokenization(): lists</text></g><path class="cls-4" d="M303,344.06H322.5V370.5H308.87"/><path class="cls-3" d="M303.62,370.5l7-3.5-1.75,3.5,1.75,3.5Z"/><rect class="cls-41" x="72.5" y="320.5" width="230" height="34"/><g class="cls-42"><text class="cls-7" transform="translate(78 338)">+pipeline_model(): model</text></g><rect class="cls-43" x="72.5" y="354.5" width="230" height="32"/><g class="cls-44"><text class="cls-7" transform="translate(78 372)">+train(): weights</text></g><path class="cls-4" d="M302.5,245.5h20v81.71H309.33"/><path class="cls-3" d="M304.08,327.2l7-3.5-1.75,3.5,1.75,3.5Z"/><path class="cls-45" d="M517.5,824.76l15,0V794.5h300v-525H755.87"/><path class="cls-46" d="M750.62,269.5l7-3.5-1.75,3.5,1.75,3.5Z"/><path class="cls-45" d="M517.5,763.92h15V794.5h300v-525H749.64l6.46-.3"/><path class="cls-46" d="M750.85,269.18l7-3.47-1.76,3.49,1.73,3.51Z"/><path class="cls-47" d="M332.5,67.5v-26h170v26"/><path class="cls-48" d="M332.5,67.5v52h170v-52"/><path class="cls-48" d="M332.5,67.5h170"/><text class="cls-5" transform="translate(371.31 59)">model_predict.py</text><rect class="cls-2" x="332.5" y="67.5" width="170" height="26"/><g class="cls-49"><text class="cls-7" transform="translate(338 85)">+text_prediction(string): string</text></g><rect class="cls-2" x="332.5" y="93.5" width="170" height="26"/><g class="cls-50"><text class="cls-7" transform="translate(338 111)">+prediction(string): void</text></g><path class="cls-20" d="M582.5,546.5v-26h220v26"/><path class="cls-19" d="M582.5,546.5v164h220v-164"/><path class="cls-19" d="M582.5,546.5h220"/><text class="cls-7" transform="translate(671.32 538)">Data.py</text><g class="cls-51"><text class="cls-7" transform="translate(588 564)">-max_len: int</text></g><g class="cls-52"><text class="cls-7" transform="translate(588 590)">-batch_size: int</text></g><g class="cls-53"><text class="cls-7" transform="translate(588 616)">-path: string</text></g><path class="cls-19" d="M582.5,626.5h220"/><g class="cls-54"><text class="cls-7" transform="translate(588 646)">+tokenizer()</text></g><g class="cls-55"><text class="cls-7" transform="translate(588 672)">+fast_encode(): lists</text></g><g class="cls-56"><text class="cls-7" transform="translate(588 698)">+create_dataset(): tf.<tspan class="cls-15" x="111.06" y="0">T</tspan><tspan x="117.06" y="0">ensor</tspan></text></g><path class="cls-46" d="M317.5,546.5v-26h200v26"/><path class="cls-45" d="M317.5,546.5V840h200V546.5"/><path class="cls-45" d="M317.5,546.5h200"/><text class="cls-7" transform="translate(389.66 538)">metrics.py</text><g class="cls-57"><text class="cls-7" transform="translate(323 564)">-y_predt: list</text></g><g class="cls-58"><text class="cls-7" transform="translate(323 599.79)">-y_true: list</text></g><path class="cls-59" d="M317.5,622.55h200"/><g class="cls-60"><text class="cls-7" transform="translate(323 644.53)">+input_date_threshold(): tensors</text></g><g class="cls-61"><text class="cls-7" transform="translate(323 674.95)">+precision_metric(): tensor</text></g><g class="cls-62"><text class="cls-7" transform="translate(323 705.37)">+recall_metric(): tensor</text></g><g class="cls-63"><text class="cls-7" transform="translate(323 735.79)">+f1_score(): tensor</text></g><g class="cls-64"><text class="cls-7" transform="translate(323 766.21)">+curve_values(): lists</text></g><g class="cls-65"><text class="cls-7" transform="translate(323 796.63)">+auc_roc(): float</text></g><g class="cls-66"><text class="cls-7" transform="translate(323 827.05)">+get_threshold(): float</text></g><path class="cls-19" d="M582.5,641.5h-10v-141H42.5v-196H66.13"/><path class="cls-20" d="M71.38,304.5l-7,3.5,1.75-3.5L64.38,301Z"/><path class="cls-19" d="M582.5,693.5v-26h-10v-167H42.5v-196H66.13"/><path class="cls-20" d="M71.38,304.5l-7,3.5,1.75-3.5L64.38,301Z"/><path class="cls-11" d="M242.5,727.5h10v-237H52.5v-120H66.13"/><path class="cls-12" d="M71.38,370.5l-7,3.5,1.75-3.5L64.38,367Z"/><path class="cls-67" d="M582.5,640.5h-40v-130h-60v-360h40v-44H508.87"/><path class="cls-20" d="M503.62,106.5l7-3.5-1.75,3.5,1.75,3.5Z"/><path class="cls-67" d="M582.5,667.5h-20v-17h-30v-160h-40v-330h40v-80H508.87"/><path class="cls-20" d="M503.62,80.5l7-3.5-1.75,3.5,1.75,3.5Z"/><path class="cls-68" d="M302.5,241.5h30v119h437v-22H755.87"/><path class="cls-69" d="M750.62,338.5l7-3.5-1.75,3.5,1.75,3.5Z"/><path class="cls-26" d="M497.5,961.5h315V646.79h-3.63"/><path class="cls-27" d="M803.62,646.83l7-3.54-1.73,3.51,1.76,3.49Z"/><path class="cls-45" d="M517.5,794.34l315,0V269.5H750.21l6.35-.3"/><path class="cls-46" d="M751.31,269.18l7-3.47-1.76,3.49,1.73,3.51Z"/><path class="cls-26" d="M497.5,987.5h325v-712H755.87"/><path class="cls-27" d="M750.62,275.5l7-3.5-1.75,3.5,1.75,3.5Z"/><path class="cls-67" d="M802.5,641.5h40v-400H755.87"/><path class="cls-20" d="M750.62,241.5l7-3.5-1.75,3.5,1.75,3.5Z"/><path class="cls-67" d="M802.5,667.5h40v-426H755.87"/><path class="cls-20" d="M750.62,241.5l7-3.5-1.75,3.5,1.75,3.5Z"/></svg>