<svg width="875" height="286" viewBox="0 0 875 286" fill="none" xmlns="http://www.w3.org/2000/svg">
<path d="M0 28C0 16.9543 8.95431 8 20 8H831C842.046 8 851 16.9543 851 28V266C851 277.046 842.046 286 831 286H20C8.9543 286 0 277.046 0 266V28Z" fill="#452732"/>
<path d="M137.035 145.346C147.024 145.346 155.153 137.219 155.153 127.232C155.153 117.244 147.024 109.117 137.035 109.117C127.046 109.117 118.917 117.244 118.917 127.232C118.917 137.219 127.043 145.346 137.035 145.346ZM137.035 113.552C144.578 113.552 150.717 119.69 150.717 127.232C150.717 134.773 144.578 140.911 137.035 140.911C129.492 140.911 123.353 134.773 123.353 127.232C123.353 119.69 129.49 113.552 137.035 113.552ZM181.757 145.14C178.851 145.14 176.489 147.502 176.489 150.406C176.489 153.311 178.851 155.673 181.757 155.673C184.662 155.673 187.024 153.311 187.024 150.406C187.024 147.502 184.66 145.14 181.757 145.14ZM178.707 173.967C176.516 173.967 174.733 175.75 174.733 177.941C174.733 180.131 176.516 181.914 178.707 181.914C180.898 181.914 182.682 180.131 182.682 177.941C182.682 175.75 180.896 173.967 178.707 173.967ZM155.153 164.266C155.153 166.793 153.097 168.849 150.569 168.849C148.04 168.849 145.982 166.793 145.982 164.266C145.982 161.738 148.04 159.68 150.569 159.68C153.097 159.68 155.153 161.738 155.153 164.266ZM84.5394 104.534C88.5605 104.534 91.8319 101.263 91.8319 97.243C91.8319 93.2227 88.5605 89.952 84.5394 89.952C80.5184 89.952 77.247 93.2227 77.247 97.243C77.247 101.263 80.5184 104.534 84.5394 104.534ZM84.5394 94.3869C86.1142 94.3869 87.3961 95.6686 87.3961 97.243C87.3961 98.8173 86.1142 100.099 84.5394 100.099C82.9647 100.099 81.6828 98.8173 81.6828 97.243C81.685 95.6686 82.9647 94.3869 84.5394 94.3869ZM74.2329 129.758C74.2329 127.414 76.1403 125.507 78.4846 125.507C80.8289 125.507 82.7363 127.414 82.7363 129.758C82.7363 132.101 80.8289 134.008 78.4846 134.008C76.1403 134.006 74.2329 132.099 74.2329 129.758ZM98.8161 161.897C98.8161 157.822 95.4981 154.507 91.4238 154.507C87.3495 154.507 84.0315 157.824 84.0315 161.897C84.0315 165.971 87.3473 169.288 91.4238 169.288C95.5003 169.288 98.8161 165.973 98.8161 161.897ZM88.4651 161.897C88.4651 160.267 89.7914 158.941 91.4216 158.941C93.0518 158.941 94.3781 160.267 94.3781 161.897C94.3781 163.527 93.0518 164.853 91.4216 164.853C89.7914 164.853 88.4651 163.527 88.4651 161.897ZM229.271 141.803H232.491C234.94 141.803 236.927 139.816 236.927 137.368V114.79C236.927 112.342 234.94 110.355 232.491 110.355H226.385C227.922 103.297 227.248 101.554 226.929 100.72L226.811 100.418C224.888 95.4202 219.033 80.2129 208.103 68.9039C196.06 56.4418 172.226 49 144.35 49C122.355 49 101.988 53.8474 89.8669 61.9655C58.8406 82.7474 58.4148 109.364 60.9498 139.477C63.6113 171.078 84.6016 187.52 91.7033 192.219V241.107C91.7033 243.555 93.6905 245.542 96.1391 245.542H176.429C178.842 245.542 180.812 243.615 180.865 241.202C181.009 234.572 181.36 226.554 181.686 224.771C182.424 221.902 184.791 220.334 186.079 219.334C187.681 219.19 205.528 218.91 210.341 218.728C214.16 218.584 217.798 214.719 221.151 207.242C221.404 206.681 221.535 206.073 221.539 205.459L221.759 175.446L230.322 174.752C233.649 174.537 239.852 172.435 242.015 165.929C242.731 163.782 243.093 162.696 229.271 141.803ZM228.055 119.225V132.933L211.215 132.897C210.552 132.23 209.203 130.347 209.203 126.077C209.203 121.664 210.585 119.834 211.164 119.258L228.055 119.225ZM186.146 180.837C186.758 182.886 187.148 185.624 185.538 187.021C183.899 188.442 180.872 188.238 179.772 187.733C177.392 186.64 163.452 173.056 159.995 171.831C154.508 169.889 147.967 173.366 145.536 174.856L142.365 173.231C141.792 169.805 141.304 165.725 140.708 159.842C148.914 159.993 178.177 143.663 180.552 142.787C181.036 142.891 189.014 146.131 194.062 147.515C190.992 154.012 183.382 171.576 186.146 180.837ZM175.15 218.511H162.774C162.889 218.214 162.964 217.901 162.945 217.582L162.82 215.506H177.454C176.605 216.493 175.817 217.527 175.15 218.511ZM161.847 220.174H174.114C173.717 220.877 173.069 222.7 172.987 223.179H160.057L161.847 220.174ZM157.748 227.055L159.065 224.844H172.761C172.67 225.685 172.586 226.694 172.506 227.849H157.712L157.748 227.055ZM157.642 229.512H172.404C172.353 230.432 172.304 231.439 172.257 232.517H157.511L157.642 229.512ZM178.951 213.894C178.871 213.87 178.794 213.846 178.705 213.846H162.718L162.539 210.841H175.728C177.17 211.681 178.523 212.453 179.745 213.14C179.479 213.38 179.215 213.633 178.951 213.894ZM162.439 209.176L162.259 206.171H168.017C169.7 207.229 171.344 208.235 172.916 209.176H162.439ZM162.159 204.51L162.024 202.275C163.153 203.038 164.284 203.783 165.406 204.51H162.159ZM157.386 199.033L158.475 217.167L153.652 225.266C153.463 225.58 153.357 225.937 153.341 226.303L152.889 236.672H148.071V229.201C148.071 228.093 147.251 227.153 146.151 227.004L138.723 225.999V221.188L145.556 222.112C146.197 222.199 146.831 222.004 147.313 221.585C147.794 221.163 148.071 220.556 148.071 219.915V211.628C148.071 210.519 147.251 209.579 146.151 209.431L138.723 208.426V203.98L145.556 204.905C146.197 204.994 146.831 204.798 147.313 204.377C147.794 203.956 148.071 203.348 148.071 202.707V194.421C148.071 193.312 147.251 192.372 146.151 192.223L138.723 191.216V186.853L144.095 187.58C147.506 191.389 152.27 195.328 157.386 199.033ZM129.416 236.672V234.965C129.416 233.856 128.596 232.916 127.496 232.767L120.068 231.76V227.951L126.899 228.876C127.54 228.958 128.174 228.769 128.656 228.348C129.137 227.926 129.414 227.319 129.414 226.678V217.391C129.414 216.283 128.594 215.342 127.494 215.194L120.066 214.187V210.378L126.897 211.302C127.538 211.393 128.172 211.196 128.654 210.774C129.135 210.353 129.412 209.746 129.412 209.105V200.184C129.412 199.075 128.591 198.135 127.491 197.986L120.064 196.982V193.172L126.895 194.097C127.536 194.183 128.17 193.988 128.651 193.569C129.133 193.148 129.41 192.54 129.41 191.899V183.058C129.41 181.95 128.589 181.01 127.489 180.861L120.061 179.854V176.045L126.893 176.969C127.533 177.054 128.168 176.863 128.649 176.442C129.13 176.02 129.408 175.413 129.408 174.772V172.251C130.885 173.166 143.627 179.333 143.627 179.333V183.043L136.793 182.118C136.159 182.036 135.518 182.225 135.037 182.646C134.555 183.067 134.278 183.675 134.278 184.316V193.157C134.278 194.265 135.099 195.206 136.199 195.354L143.627 196.361V200.171L136.793 199.246C136.159 199.164 135.518 199.352 135.037 199.774C134.555 200.195 134.278 200.803 134.278 201.443V210.364C134.278 211.473 135.099 212.413 136.199 212.562L143.627 213.566V217.376L136.793 216.451C136.159 216.36 135.518 216.558 135.037 216.979C134.555 217.4 134.278 218.008 134.278 218.649V227.938C134.278 229.046 135.099 229.986 136.199 230.135L143.627 231.14V234.949L136.793 234.024C136.159 233.94 135.518 234.133 135.037 234.552C134.555 234.974 134.278 235.581 134.278 236.222V236.672H129.416V236.672ZM106.506 173.011L107.195 175.914H104.316C104.944 174.887 105.669 173.911 106.506 173.011ZM107.697 194.587H100.575V191.582H108.542L107.697 194.587ZM104.822 209.176H100.575V206.171H105.326L104.822 209.176ZM104.545 210.839L104.23 212.728C104.172 213.074 104.197 213.427 104.303 213.759L104.33 213.843H100.577V210.839H104.545ZM104.851 215.506L105.798 218.511H100.575V215.506H104.851ZM105.603 204.51H100.575V200.918H106.204L105.603 204.51ZM100.575 224.844H107.275L107.535 227.849H100.575V224.844ZM100.575 223.181V220.176H106.321L107.08 222.585L107.131 223.183H100.575V223.181ZM106.661 198.268C106.639 198.346 106.621 198.423 106.61 198.501L106.483 199.255H100.577V196.25H107.231L106.661 198.268ZM109.832 186.994L109.01 189.919H100.575V189.749C100.575 189.296 100.462 187.513 100.553 186.915H109.812L109.832 186.994ZM100.848 185.249C101.032 184.322 101.265 183.311 101.575 182.245H108.703L109.418 185.249H100.848ZM103.394 177.577H107.592L108.306 180.582H102.11C102.462 179.586 102.897 178.575 103.394 177.577ZM100.575 229.512H107.679L107.938 232.517H100.575V229.512ZM111.478 221.959C111.465 221.797 111.432 221.638 111.385 221.485L108.692 212.936L114.259 187.64C114.361 187.276 114.368 186.895 114.282 186.527L110.36 170.049C113.474 167.782 120.96 168.29 124.983 169.969V172.231L118.152 171.306C117.515 171.222 116.876 171.415 116.395 171.834C115.914 172.255 115.637 172.863 115.637 173.503V181.79C115.637 182.899 116.457 183.839 117.557 183.988L124.985 184.994V189.36L118.154 188.436C117.517 188.352 116.879 188.544 116.397 188.964C115.916 189.385 115.639 189.992 115.639 190.633V198.918C115.639 200.026 116.459 200.967 117.56 201.115L124.987 202.122V206.568L118.156 205.643C117.52 205.555 116.881 205.75 116.4 206.171C115.918 206.592 115.641 207.2 115.641 207.841V216.127C115.641 217.236 116.462 218.176 117.562 218.325L124.99 219.329V224.141L118.158 223.217C117.522 223.128 116.883 223.323 116.402 223.744C115.921 224.166 115.643 224.773 115.643 225.414V233.701C115.643 234.809 116.464 235.75 117.564 235.898L123.286 236.672H112.758L111.478 221.959ZM108.635 127.232C108.635 116.958 114.044 107.692 122.865 102.625C125.103 105.829 128.811 107.936 133.007 107.936C138.312 107.936 142.833 104.574 144.587 99.8729C156.768 103.23 165.435 114.435 165.435 127.232C165.435 146.069 146.512 155.626 137.035 155.626C121.374 155.626 108.635 142.889 108.635 127.232ZM109.555 62.644C114.911 60.9831 120.926 59.728 127.349 58.9209C127.485 62.8059 127.791 68.0102 128.472 70.4007C130.029 75.8645 132.014 80.1508 133.744 83.2442C130.166 83.069 126.948 84.7409 125.992 85.4017C123.781 83.1045 112.181 68.2741 109.555 62.644ZM145.372 95.5022C145.352 91.7126 143.618 88.3221 140.907 86.067C140.626 85.7233 139.623 84.4482 138.341 82.3128C140.863 82.7031 143.438 83.2774 146.044 84.0668C159.961 88.28 164.57 98.6355 165.395 100.791C164.548 102.654 163.515 104.492 162.279 106.29C157.994 101.123 152.139 97.2762 145.372 95.5022ZM125.076 95.571C125.076 91.1982 128.634 87.6414 133.007 87.6414C137.381 87.6414 140.938 91.1982 140.938 95.571C140.938 99.9438 137.381 103.501 133.007 103.501C128.634 103.501 125.076 99.9416 125.076 95.571ZM198.214 144.005C191.72 142.45 184.338 139.452 184.077 139.346C186.887 135.197 191.817 126.751 191.595 118.746C191.278 107.219 196.331 103.565 197.754 102.764L218.439 104.228C218.23 106.155 217.405 110.055 216.429 113.61C216.321 114.009 216.285 114.415 216.289 114.819H210.45C210.117 114.819 204.765 117.55 204.765 126.072C204.765 134.314 208.919 136.802 209.392 137.06C209.716 137.235 210.079 137.328 210.45 137.328H215.737C213.023 139.991 205.965 145.867 198.214 144.005ZM216.966 99.6799L197.484 98.3007C197.158 98.2807 186.709 102.379 187.164 118.868C187.386 126.946 180.921 136.237 179.166 138.605C177.108 139.372 171.313 142.084 164.335 145.442C167.826 140.226 169.871 133.964 169.871 127.232C169.871 120.974 168.057 115.058 164.925 110.002C165.078 109.88 165.253 109.787 165.375 109.621C177.667 92.624 173.224 72.1901 164.985 59.4509C181.12 61.9965 194.414 67.5002 201.725 75.0662C209.403 83.0158 214.362 93.4267 216.966 99.6799ZM158.97 58.6504C165.77 67.0967 170.962 81.2706 167.431 95.0188C164.552 90.2602 158.6 83.2331 147.328 79.8204C143.42 78.6363 139.559 77.8801 135.824 77.532C134.746 75.197 131.171 66.5179 131.774 58.4419C135.851 58.0716 154.266 58.1448 158.97 58.6504ZM105.29 64.1142C107.12 68.691 113.015 77.1395 115.45 80.1641C107.45 83.1244 102.385 87.8055 99.8341 90.7414L88.7135 73.8821C90.5788 72.3321 101.296 65.6198 105.29 64.1142ZM85.3601 76.8535L97.8424 95.7772C98.255 96.4003 98.9492 96.7729 99.6944 96.7729C99.7032 96.7729 99.7143 96.7751 99.7254 96.7729C101.89 96.4779 106.785 87.5593 118.502 83.7919C120.392 85.9539 122.002 87.6569 122.854 88.5372C119.46 93.5332 120.787 97.6155 121.031 98.5801C105.017 108.372 103.447 123.71 104.556 131.815L71.2786 148.1C68.6548 126.482 64.3565 94.2605 85.3601 76.8535ZM72.4608 152.46L105.499 136.292C109.376 149.761 121.647 159.684 136.268 160.024C136.76 164.904 136.926 167.463 137.408 170.741C137.408 170.741 118.209 157.252 104.214 167.964C98.7096 172.18 97.1549 180.686 96.4097 184.704C91.497 181.435 78.3448 171.237 72.4608 152.46ZM100.575 234.18H108.08L108.295 236.672H100.575V234.18ZM157.329 236.672L157.437 234.18H172.191C172.162 234.98 172.133 235.798 172.107 236.672H157.329ZM216.993 166.933C214.701 167.119 212.932 169.024 212.916 171.321L212.677 204.426C211.576 206.685 210.363 209.404 209.241 209.892C205.131 211.681 186.456 210.965 184.864 211.207C176.534 206.614 157.251 195.119 148.073 185.356V178.497C150.489 177.034 155.206 174.838 158.513 176.009C161.055 176.909 174.797 190.463 177.92 191.762C182.46 193.651 186.61 191.964 188.446 190.369C190.32 188.742 192.181 185.549 190.398 179.568C188.193 172.18 194.92 155.875 198.484 148.539C207.243 149.95 214.677 144.415 218.179 141.149C224.356 150.402 233.37 159.984 232.928 164.323C232.751 166.068 216.993 166.933 216.993 166.933Z" fill="url(#paint0_linear)"/>
<path d="M772.338 219.054H737.188V223.441H772.338V219.054Z" fill="#EFF1A4"/>
<path d="M346.15 219.054H311V223.441H346.15V219.054Z" fill="#EFF1A4"/>
<path d="M337.15 78L395.809 162.004H396.095V78H408.113V179.148H392.947L334.288 95.1437H334.002V179.148H321.984V78H337.15V78ZM463.195 110.573C473.591 110.573 482.08 113.787 488.661 120.216C495.243 126.645 498.676 135.146 498.962 145.718C498.962 155.909 495.624 164.266 488.947 170.79C482.271 177.314 473.687 180.672 463.195 180.862C452.703 180.862 444.166 177.553 437.585 170.933C431.004 164.314 427.618 155.909 427.427 145.718C427.427 135.431 430.765 127.026 437.442 120.502C444.119 113.978 452.703 110.668 463.195 110.573V110.573ZM439.445 145.718C439.445 153.051 441.663 158.98 446.098 163.504C450.533 168.028 456.232 170.386 463.195 170.576C470.158 170.576 475.833 168.266 480.22 163.647C484.608 159.028 486.849 153.051 486.944 145.718C486.944 138.479 484.727 132.526 480.292 127.86C475.857 123.193 470.11 120.859 463.052 120.859C456.184 120.859 450.557 123.169 446.169 127.788C441.782 132.407 439.54 138.384 439.445 145.718V145.718ZM549.18 110.573C557.574 110.573 563.916 113.002 568.209 117.859C572.501 122.716 574.647 129.193 574.647 137.289V179.148H563.487V138.574C563.487 133.431 562.295 129.217 559.91 125.931C557.526 122.645 553.615 120.954 548.179 120.859C541.311 120.859 536.137 123.121 532.656 127.645C529.174 132.169 527.433 138.432 527.433 146.432V179.148H516.274V127.145C516.274 126.669 516.083 121.716 515.702 112.287H526.289C526.48 118.954 526.575 122.621 526.575 123.288H526.861C528.673 119.478 531.606 116.407 535.66 114.073C539.714 111.74 544.22 110.573 549.18 110.573ZM602.402 78C604.596 78 606.504 78.7858 608.125 80.3573C609.747 81.9288 610.557 83.8574 610.557 86.1433C610.557 88.5243 609.794 90.4768 608.268 92.0007C606.742 93.5246 604.787 94.2865 602.402 94.2865C600.018 94.2865 598.063 93.5246 596.537 92.0007C595.01 90.4768 594.247 88.5243 594.247 86.1433C594.247 83.8574 595.058 81.9288 596.68 80.3573C598.301 78.7858 600.209 78 602.402 78ZM607.982 112.287V179.148H596.823V112.287H607.982ZM661.061 110.573C671.649 110.573 680.185 114.097 686.671 121.145L677.801 129.003C673.318 123.574 667.69 120.859 660.918 120.859C653.956 120.859 648.447 123.121 644.394 127.645C640.34 132.169 638.313 138.193 638.313 145.718C638.313 152.861 640.483 158.766 644.823 163.433C649.163 168.1 654.528 170.481 660.918 170.576C668.263 170.576 673.938 167.814 677.944 162.29L686.242 170.147C680.042 177.195 671.601 180.767 660.918 180.862C650.713 180.767 642.438 177.529 636.096 171.147C629.753 164.766 626.486 156.29 626.295 145.718C626.391 135.05 629.729 126.526 636.31 120.145C642.891 113.764 651.142 110.573 661.061 110.573V110.573ZM729.592 110.573C739.512 110.573 747.261 113.692 752.841 119.931C758.421 126.169 761.258 135.003 761.354 146.432V149.146H707.273C707.845 155.337 710.182 160.433 714.284 164.433C718.385 168.433 723.392 170.481 729.306 170.576C738.367 170.576 745.425 167.195 750.48 160.433L758.922 167.004C755.393 171.576 751.244 175.029 746.474 177.362C741.705 179.695 735.983 180.862 729.306 180.862C719.1 180.862 710.898 177.553 704.698 170.933C698.498 164.314 695.351 155.909 695.255 145.718C695.255 135.622 698.427 127.288 704.769 120.716C711.112 114.145 719.386 110.764 729.592 110.573V110.573ZM749.336 139.717C749.05 133.908 747.166 129.312 743.685 125.931C740.203 122.55 735.315 120.859 729.02 120.859C723.297 120.859 718.48 122.478 714.57 125.717C710.659 128.955 708.227 133.622 707.273 139.717H749.336Z" fill="url(#paint1_linear)"/>
<path d="M363.041 213.43C364.451 213.43 365.766 212.782 366.637 211.643L367.745 212.466C366.621 213.968 364.894 214.822 363.041 214.822C359.779 214.822 357.134 212.181 357.134 208.923C357.134 205.681 359.779 203.04 363.041 203.04C364.91 203.04 366.637 203.91 367.761 205.412L366.637 206.234C365.781 205.08 364.467 204.432 363.041 204.432C360.539 204.432 358.528 206.44 358.528 208.923C358.528 211.422 360.539 213.43 363.041 213.43ZM386.067 203.04C389.314 203.04 391.975 205.681 391.975 208.939C391.975 212.181 389.314 214.806 386.067 214.806C382.82 214.806 380.175 212.181 380.175 208.939C380.175 205.681 382.82 203.04 386.067 203.04V203.04ZM386.067 213.415C388.538 213.415 390.533 211.39 390.533 208.939C390.533 206.472 388.538 204.432 386.067 204.432C383.596 204.432 381.601 206.472 381.601 208.939C381.601 211.39 383.596 213.415 386.067 213.415ZM412.529 214.648L406.495 205.744V214.648H405.07V203.388H406.622L412.64 212.292V203.388H414.066V214.648H412.529ZM427.097 203.388H428.634L432.181 212.608L435.745 203.388H437.265L432.926 214.648H431.453L427.097 203.388ZM449.854 214.648V203.388H456.981V204.748H451.279V207.389H456.252V208.797H451.279V213.256H456.838V214.648H449.854ZM474.701 208.654L479.056 214.648H477.425L473.117 208.733H471.501V214.648H470.139V203.388H474.051C474.764 203.388 475.429 203.672 475.936 204.178C476.443 204.685 476.728 205.349 476.728 206.061C476.728 207.31 475.857 208.354 474.701 208.654ZM471.501 204.748V207.373H474.051C474.78 207.373 475.366 206.788 475.366 206.061C475.366 205.333 474.78 204.748 474.051 204.748H471.501ZM495.16 214.759C494.78 214.759 494.4 214.711 494.02 214.632C492.848 214.395 491.692 213.81 490.662 212.924L491.597 211.865C492.436 212.592 493.371 213.083 494.305 213.272C495.097 213.446 495.873 213.383 496.491 213.098C496.902 212.909 497.615 212.434 497.615 211.469C497.615 210.283 496.348 209.856 495.113 209.619C495.002 209.603 493.228 209.239 492.515 208.828C491.565 208.259 491.058 207.405 491.058 206.361C491.058 205.776 491.248 205.222 491.581 204.732C491.913 204.289 492.373 203.925 492.911 203.672C493.703 203.293 494.638 203.182 495.588 203.34C496.617 203.514 497.663 204.005 498.581 204.764L497.679 205.855C496.047 204.511 494.463 204.479 493.513 204.922C492.864 205.222 492.484 205.776 492.484 206.345C492.484 207.421 493.402 207.832 494.859 208.148C495.461 208.29 496.712 208.496 497.457 208.923C498.486 209.492 499.025 210.378 499.025 211.469C499.025 212.118 498.851 212.719 498.486 213.241C498.154 213.715 497.647 214.079 497.077 214.364C496.475 214.664 495.857 214.759 495.16 214.759V214.759ZM519.738 214.648L518.487 211.374H513.878L512.627 214.648H511.106L515.446 203.388H516.919L521.274 214.648H519.738ZM517.932 209.983L516.19 205.428L514.432 209.983H517.932ZM536.286 214.648V204.779H533.308V203.388H540.689V204.779H537.711V214.648H536.286ZM554.465 214.648V203.388H555.89V214.648H554.465ZM575.194 203.04C578.441 203.04 581.101 205.681 581.101 208.939C581.101 212.181 578.441 214.806 575.194 214.806C571.947 214.806 569.302 212.181 569.302 208.939C569.302 205.681 571.947 203.04 575.194 203.04V203.04ZM575.194 213.415C577.664 213.415 579.66 211.39 579.66 208.939C579.66 206.472 577.664 204.432 575.194 204.432C572.723 204.432 570.727 206.472 570.727 208.939C570.727 211.39 572.723 213.415 575.194 213.415ZM601.656 214.648L595.622 205.744V214.648H594.196V203.388H595.748L601.767 212.292V203.388H603.192V214.648H601.656ZM624.317 214.648L623.066 211.374H618.457L617.206 214.648H615.686L620.025 203.388H621.498L625.854 214.648H624.317V214.648ZM622.512 209.983L620.77 205.428L619.012 209.983H622.512ZM638.648 214.648V203.388H640.073V213.272H646.25V214.648H638.648V214.648ZM673.913 214.648V203.388H677.968C678.68 203.388 679.361 203.672 679.852 204.178C680.359 204.669 680.644 205.349 680.644 206.061C680.644 206.614 680.486 207.136 680.169 207.579L680.153 207.595L680.169 207.61C680.613 207.784 681.024 208.053 681.357 208.401C682.054 209.081 682.434 209.999 682.434 210.979C682.434 211.944 682.054 212.861 681.357 213.557C680.676 214.237 679.757 214.648 678.791 214.648H673.913V214.648ZM675.323 213.272H678.791C680.027 213.241 681.024 212.197 681.024 210.979C681.024 209.745 680.027 208.733 678.791 208.717H675.323V213.272ZM675.323 207.342H677.968C678.664 207.326 679.235 206.756 679.235 206.061C679.235 205.365 678.68 204.795 677.968 204.764H675.323V207.342V207.342ZM700.661 203.04C703.907 203.04 706.568 205.681 706.568 208.939C706.568 212.181 703.907 214.806 700.661 214.806C697.414 214.806 694.769 212.181 694.769 208.939C694.769 205.681 697.414 203.04 700.661 203.04V203.04ZM700.661 213.415C703.131 213.415 705.127 211.39 705.127 208.939C705.127 206.472 703.131 204.432 700.661 204.432C698.19 204.432 696.194 206.472 696.194 208.939C696.194 211.39 698.19 213.415 700.661 213.415ZM721.801 214.648V204.779H718.824V203.388H726.204V204.779H723.227V214.648H721.801Z" fill="url(#paint2_linear)"/>
<defs>
<linearGradient id="paint0_linear" x1="60" y1="49" x2="242.292" y2="49" gradientUnits="userSpaceOnUse">
<stop stop-color="#00B3E0"/>
<stop offset="1" stop-color="#EFF1A4"/>
</linearGradient>
<linearGradient id="paint1_linear" x1="321.984" y1="78" x2="761.354" y2="78" gradientUnits="userSpaceOnUse">
<stop stop-color="#04B4DE"/>
<stop offset="1" stop-color="#EFF1A4"/>
</linearGradient>
<linearGradient id="paint2_linear" x1="357.134" y1="203.04" x2="726.204" y2="203.04" gradientUnits="userSpaceOnUse">
<stop stop-color="#00B3E0"/>
<stop offset="0.9997" stop-color="#FBF4A1"/>
<stop offset="0.9998" stop-color="#EFF1A4"/>
</linearGradient>
</defs>
</svg>
