<svg width="624" height="204" viewBox="0 0 624 204" fill="none" xmlns="http://www.w3.org/2000/svg">
<path d="M0 20C0 8.9543 8.95431 0 20 0H604C615.046 0 624 8.95431 624 20V184C624 195.046 615.046 204 604 204H20C8.95429 204 0 195.046 0 184V20Z" fill="#452732"/>
<path d="M81.9369 100.722C89.0608 100.722 94.8577 94.9256 94.8577 87.8017C94.8577 80.6778 89.0608 74.881 81.9369 74.881C74.8131 74.881 69.0162 80.6778 69.0162 87.8017C69.0162 94.9256 74.8115 100.722 81.9369 100.722ZM81.9369 78.0443C87.3162 78.0443 91.6943 82.4224 91.6943 87.8017C91.6943 93.181 87.3162 97.5591 81.9369 97.5591C76.5576 97.5591 72.1796 93.181 72.1796 87.8017C72.1796 82.4224 76.5561 78.0443 81.9369 78.0443ZM113.83 100.575C111.758 100.575 110.073 102.26 110.073 104.332C110.073 106.404 111.758 108.088 113.83 108.088C115.902 108.088 117.586 106.404 117.586 104.332C117.586 102.26 115.9 100.575 113.83 100.575ZM111.655 121.137C110.092 121.137 108.821 122.409 108.821 123.972C108.821 125.534 110.092 126.806 111.655 126.806C113.218 126.806 114.49 125.534 114.49 123.972C114.49 122.409 113.216 121.137 111.655 121.137ZM94.8577 114.217C94.8577 116.02 93.3915 117.487 91.5884 117.487C89.7852 117.487 88.3175 116.02 88.3175 114.217C88.3175 112.414 89.7852 110.946 91.5884 110.946C93.3915 110.946 94.8577 112.414 94.8577 114.217ZM44.5001 71.6116C47.3677 71.6116 49.7007 69.2786 49.7007 66.4111C49.7007 63.5435 47.3677 61.2105 44.5001 61.2105C41.6325 61.2105 39.2996 63.5435 39.2996 66.4111C39.2996 69.2786 41.6325 71.6116 44.5001 71.6116ZM44.5001 64.3738C45.6231 64.3738 46.5373 65.2881 46.5373 66.4111C46.5373 67.534 45.6231 68.4483 44.5001 68.4483C43.3771 68.4483 42.4629 67.534 42.4629 66.4111C42.4645 65.2881 43.3771 64.3738 44.5001 64.3738ZM37.1501 89.6032C37.1501 87.9314 38.5103 86.5712 40.1821 86.5712C41.854 86.5712 43.2142 87.9314 43.2142 89.6032C43.2142 91.2751 41.854 92.6353 40.1821 92.6353C38.5103 92.6337 37.1501 91.2735 37.1501 89.6032ZM54.6814 112.528C54.6814 109.621 52.3152 107.256 49.4097 107.256C46.5041 107.256 44.1379 109.623 44.1379 112.528C44.1379 115.434 46.5025 117.8 49.4097 117.8C52.3168 117.8 54.6814 115.435 54.6814 112.528ZM47.2997 112.528C47.2997 111.366 48.2456 110.42 49.4081 110.42C50.5706 110.42 51.5165 111.366 51.5165 112.528C51.5165 113.691 50.5706 114.637 49.4081 114.637C48.2456 114.637 47.2997 113.691 47.2997 112.528ZM147.714 98.1949H150.011C151.757 98.1949 153.174 96.7778 153.174 95.0316V78.9269C153.174 77.1807 151.757 75.7635 150.011 75.7635H145.657C146.753 70.729 146.272 69.4858 146.044 68.8911L145.96 68.676C144.589 65.1109 140.413 54.2637 132.619 46.1972C124.03 37.3081 107.033 32 87.1533 32C71.4678 32 56.9432 35.4576 48.2993 41.2481C26.1732 56.0716 25.8695 75.0565 27.6774 96.5358C29.5754 119.076 44.5444 130.804 49.609 134.156V169.027C49.609 170.774 51.0262 172.191 52.7723 172.191H110.031C111.752 172.191 113.156 170.816 113.194 169.095C113.297 164.366 113.547 158.647 113.779 157.375C114.306 155.328 115.994 154.21 116.913 153.497C118.055 153.394 130.782 153.195 134.215 153.065C136.938 152.962 139.532 150.205 141.924 144.872C142.104 144.472 142.197 144.038 142.201 143.6L142.357 122.192L148.464 121.697C150.837 121.544 155.261 120.044 156.803 115.404C157.314 113.873 157.571 113.098 147.714 98.1949ZM146.848 82.0903V91.8682L134.838 91.8429C134.365 91.3668 133.403 90.024 133.403 86.9777C133.403 83.8301 134.389 82.5252 134.801 82.114L146.848 82.0903ZM116.96 126.037C117.397 127.499 117.675 129.452 116.527 130.449C115.358 131.462 113.199 131.317 112.414 130.956C110.717 130.177 100.776 120.487 98.3105 119.614C94.3974 118.229 89.7331 120.709 87.9995 121.771L85.7377 120.612C85.3297 118.168 84.9817 115.258 84.5562 111.062C90.4084 111.169 111.277 99.522 112.971 98.8972C113.316 98.9715 119.005 101.282 122.605 102.269C120.416 106.904 114.989 119.432 116.96 126.037ZM109.118 152.91H100.292C100.375 152.698 100.428 152.475 100.414 152.247L100.326 150.767H110.762C110.156 151.471 109.594 152.208 109.118 152.91ZM99.6312 154.096H108.379C108.096 154.598 107.635 155.898 107.576 156.239H98.3548L99.6312 154.096ZM96.7083 159.004L97.6478 157.427H107.415C107.35 158.027 107.29 158.746 107.233 159.57H96.683L96.7083 159.004ZM96.6323 160.757H107.16C107.124 161.413 107.089 162.131 107.056 162.9H96.539L96.6323 160.757ZM111.829 149.617C111.772 149.6 111.717 149.582 111.654 149.582H100.253L100.125 147.439H109.531C110.559 148.038 111.524 148.589 112.395 149.079C112.206 149.25 112.017 149.43 111.829 149.617ZM100.054 146.251L99.9254 144.108H104.031C105.232 144.862 106.404 145.581 107.525 146.251H100.054ZM99.8542 142.923L99.7577 141.329C100.563 141.873 101.369 142.405 102.17 142.923H99.8542ZM96.4505 139.017L97.2271 151.952L93.7869 157.728C93.6525 157.952 93.5765 158.207 93.5655 158.468L93.2428 165.864H89.8074V160.535C89.8074 159.744 89.2222 159.074 88.4377 158.968L83.1406 158.251V154.819L88.0138 155.479C88.4709 155.54 88.9232 155.401 89.2665 155.102C89.6097 154.802 89.8074 154.368 89.8074 153.911V148.001C89.8074 147.21 89.2222 146.539 88.4377 146.433L83.1406 145.717V142.545L88.0138 143.205C88.4709 143.268 88.9232 143.129 89.2665 142.828C89.6097 142.528 89.8074 142.094 89.8074 141.637V135.727C89.8074 134.936 89.2222 134.265 88.4377 134.159L83.1406 133.441V130.328L86.9714 130.847C89.4041 133.564 92.8015 136.374 96.4505 139.017ZM76.5039 165.864V164.646C76.5039 163.855 75.9186 163.185 75.1341 163.079L69.8371 162.361V159.643L74.7087 160.303C75.1658 160.361 75.6181 160.227 75.9614 159.926C76.3046 159.626 76.5023 159.192 76.5023 158.735V152.111C76.5023 151.32 75.9171 150.65 75.1326 150.544L69.8355 149.826V147.108L74.7071 147.768C75.1642 147.833 75.6166 147.692 75.9598 147.392C76.303 147.091 76.5007 146.658 76.5007 146.201V139.837C76.5007 139.047 75.9155 138.376 75.131 138.27L69.8339 137.553V134.836L74.7055 135.496C75.1626 135.557 75.615 135.418 75.9582 135.119C76.3014 134.819 76.4991 134.385 76.4991 133.928V127.622C76.4991 126.831 75.9139 126.161 75.1294 126.055L69.8323 125.337V122.619L74.7039 123.279C75.161 123.339 75.6134 123.203 75.9566 122.902C76.2998 122.602 76.4976 122.168 76.4976 121.711V119.913C77.551 120.566 86.6377 124.965 86.6377 124.965V127.611L81.7645 126.951C81.3122 126.893 80.8551 127.027 80.5119 127.328C80.1686 127.628 79.9709 128.062 79.9709 128.519V134.825C79.9709 135.616 80.5561 136.287 81.3406 136.393L86.6377 137.111V139.828L81.7645 139.168C81.3122 139.11 80.8551 139.244 80.5119 139.545C80.1686 139.845 79.9709 140.279 79.9709 140.736V147.099C79.9709 147.89 80.5561 148.56 81.3406 148.666L86.6377 149.383V152.1L81.7645 151.441C81.3122 151.376 80.8551 151.517 80.5119 151.817C80.1686 152.118 79.9709 152.551 79.9709 153.008V159.634C79.9709 160.425 80.5561 161.095 81.3406 161.201L86.6377 161.918V164.635L81.7645 163.975C81.3122 163.915 80.8551 164.053 80.5119 164.352C80.1686 164.652 79.9709 165.086 79.9709 165.543V165.864H76.5039V165.864ZM60.1651 120.456L60.657 122.526H58.604C59.0516 121.794 59.5688 121.098 60.1651 120.456ZM61.0145 135.845H55.9357V133.702H61.6171L61.0145 135.845ZM58.9646 146.251H55.9357V144.108H59.3237L58.9646 146.251ZM58.7669 147.437L58.5423 148.785C58.5012 149.032 58.5186 149.283 58.5945 149.52L58.6135 149.581H55.9373V147.437H58.7669ZM58.9852 150.767L59.6605 152.91H55.9357V150.767H58.9852ZM59.5214 142.923H55.9357V140.361H59.95L59.5214 142.923ZM55.9357 157.427H60.714L60.899 159.57H55.9357V157.427ZM55.9357 156.241V154.098H60.0338L60.5748 155.816L60.6111 156.243H55.9357V156.241ZM60.2758 138.471C60.26 138.526 60.2474 138.582 60.2394 138.637L60.1493 139.175H55.9373V137.032H60.6823L60.2758 138.471ZM62.5376 130.43L61.9508 132.516H55.9357V132.394C55.9357 132.071 55.855 130.8 55.9199 130.373H62.5234L62.5376 130.43ZM56.1302 129.185C56.2615 128.524 56.4276 127.802 56.649 127.042H61.7326L62.2419 129.185H56.1302ZM57.946 123.712H60.9401L61.4494 125.855H57.0302C57.2817 125.145 57.5917 124.424 57.946 123.712ZM55.9357 160.757H61.0018L61.1869 162.9H55.9357V160.757ZM63.7112 155.37C63.7017 155.254 63.678 155.14 63.6448 155.031L61.7246 148.934L65.6947 130.89C65.7674 130.63 65.7722 130.358 65.7105 130.096L62.9141 118.342C65.1348 116.726 70.4729 117.088 73.3421 118.285V119.899L68.4705 119.239C68.0166 119.179 67.5611 119.317 67.2178 119.616C66.8746 119.916 66.6769 120.35 66.6769 120.807V126.717C66.6769 127.508 67.2621 128.179 68.0466 128.285L73.3437 129.003V132.117L68.4721 131.458C68.0182 131.398 67.5626 131.535 67.2194 131.834C66.8762 132.135 66.6785 132.568 66.6785 133.025V138.934C66.6785 139.725 67.2637 140.396 68.0482 140.502L73.3453 141.22V144.391L68.4737 143.732C68.0197 143.668 67.5642 143.807 67.221 144.108C66.8778 144.408 66.6801 144.842 66.6801 145.299V151.21C66.6801 152.001 67.2653 152.671 68.0498 152.777L73.3468 153.494V156.926L68.4753 156.266C68.0213 156.203 67.5658 156.342 67.2226 156.643C66.8793 156.943 66.6816 157.377 66.6816 157.834V163.745C66.6816 164.535 67.2669 165.206 68.0514 165.312L72.1321 165.864H64.6239L63.7112 155.37ZM61.6835 87.8017C61.6835 80.4738 65.5412 73.8639 71.8316 70.2498C73.4275 72.5353 76.0721 74.0379 79.0646 74.0379C82.848 74.0379 86.0715 71.6401 87.3226 68.2869C96.0092 70.6816 102.19 78.6738 102.19 87.8017C102.19 101.238 88.6955 108.055 81.9369 108.055C70.7687 108.055 61.6835 98.97 61.6835 87.8017ZM62.3399 41.7321C66.1597 40.5474 70.4492 39.6522 75.0297 39.0764C75.1262 41.8475 75.3445 45.5598 75.8301 47.2648C76.9404 51.1621 78.356 54.2195 79.5897 56.4259C77.0385 56.3009 74.7435 57.4935 74.0618 57.9649C72.4848 56.3263 64.2126 45.748 62.3399 41.7321ZM87.8825 65.1694C87.8683 62.4663 86.6314 60.048 84.6986 58.4394C84.4977 58.1942 83.7828 57.2848 82.8686 55.7616C84.6669 56.04 86.5033 56.4496 88.3617 57.0127C98.2868 60.0179 101.574 67.4043 102.162 68.9417C101.558 70.2704 100.821 71.5816 99.9396 72.8643C96.8838 69.179 92.7082 66.4348 87.8825 65.1694ZM73.4085 65.2185C73.4085 62.0994 75.9455 59.5624 79.0646 59.5624C82.1837 59.5624 84.7207 62.0994 84.7207 65.2185C84.7207 68.3375 82.1837 70.8746 79.0646 70.8746C75.9455 70.8746 73.4085 68.336 73.4085 65.2185ZM125.566 99.7655C120.935 98.6568 115.671 96.5184 115.484 96.4424C117.488 93.4831 121.004 87.4585 120.846 81.7486C120.62 73.527 124.223 70.9204 125.239 70.3494L139.989 71.3934C139.841 72.7678 139.252 75.55 138.556 78.0854C138.479 78.3701 138.454 78.6596 138.457 78.9475H134.292C134.055 78.9475 130.238 80.8961 130.238 86.9745C130.238 92.8536 133.201 94.6282 133.538 94.8117C133.769 94.9367 134.028 95.0031 134.292 95.0031H138.063C136.127 96.9027 131.094 101.094 125.566 99.7655ZM138.939 68.1493L125.046 67.1655C124.813 67.1513 117.362 70.0742 117.686 81.8356C117.844 87.5977 113.234 94.2249 111.983 95.9142C110.515 96.4614 106.382 98.3958 101.406 100.79C103.895 97.0704 105.354 92.6037 105.354 87.8017C105.354 83.3382 104.06 79.1183 101.827 75.512C101.936 75.4251 102.061 75.3586 102.148 75.24C110.913 63.1164 107.745 48.5412 101.869 39.4545C113.376 41.2702 122.857 45.196 128.07 50.5927C133.546 56.263 137.082 63.689 138.939 68.1493ZM97.5798 38.8835C102.429 44.9081 106.132 55.0182 103.614 64.8246C101.561 61.4303 97.3156 56.418 89.2775 53.9838C86.4906 53.1392 83.7369 52.5998 81.0733 52.3515C80.3047 50.686 77.755 44.4953 78.1852 38.7348C81.0923 38.4707 94.225 38.5229 97.5798 38.8835ZM59.2983 42.7807C60.6032 46.0453 64.8073 52.0715 66.544 54.2289C60.8389 56.3405 57.2263 59.6794 55.4074 61.7736L47.4769 49.748C48.8071 48.6424 56.4497 43.8547 59.2983 42.7807ZM45.0854 51.8675L53.9871 65.3656C54.2813 65.81 54.7763 66.0757 55.3078 66.0757C55.3141 66.0757 55.322 66.0773 55.3299 66.0757C56.8736 65.8654 60.3644 59.5039 68.7204 56.8166C70.068 58.3587 71.2163 59.5734 71.8237 60.2014C69.4037 63.7649 70.3496 66.6768 70.5235 67.3648C59.1038 74.3495 57.984 85.29 58.7748 91.071L35.0433 102.687C33.1721 87.2671 30.1068 64.2837 45.0854 51.8675ZM35.8863 105.796L59.447 94.2645C62.2118 103.872 70.9632 110.95 81.3897 111.192C81.7408 114.673 81.8594 116.498 82.2027 118.836C82.2027 118.836 68.5116 109.215 58.5312 116.856C54.6055 119.862 53.4967 125.93 52.9653 128.796C49.4619 126.464 40.0825 119.19 35.8863 105.796ZM55.9357 164.086H61.2881L61.4415 165.864H55.9357V164.086ZM96.4093 165.864L96.4868 164.086H107.008C106.988 164.657 106.967 165.241 106.948 165.864H96.4093ZM138.958 116.12C137.324 116.253 136.062 117.612 136.051 119.25L135.88 142.863C135.096 144.475 134.23 146.414 133.43 146.762C130.499 148.038 117.182 147.528 116.046 147.7C110.105 144.424 96.354 136.225 89.809 129.261V124.369C91.5314 123.325 94.8957 121.759 97.2539 122.594C99.0666 123.236 108.867 132.903 111.094 133.83C114.331 135.178 117.291 133.974 118.6 132.837C119.937 131.676 121.264 129.398 119.992 125.133C118.42 119.862 123.217 108.232 125.759 103C132.005 104.006 137.307 100.058 139.804 97.7283C144.209 104.329 150.637 111.163 150.323 114.258C150.196 115.503 138.958 116.12 138.958 116.12Z" fill="url(#paint0_linear)"/>
<path d="M536 153.871H510.933V157H536V153.871Z" fill="#EFF1A4"/>
<path d="M232.067 153.871H207V157H232.067V153.871Z" fill="#EFF1A4"/>
<path d="M225.648 53.2589L267.481 113.178H267.685V53.2589H276.255V125.406H265.44L223.608 65.4873H223.404V125.406H214.833V53.2589H225.648V53.2589ZM315.537 76.4928C322.951 76.4928 329.005 78.7856 333.698 83.3713C338.391 87.9569 340.84 94.0202 341.044 101.561C341.044 108.83 338.663 114.791 333.902 119.445C329.141 124.099 323.019 126.493 315.537 126.629C308.055 126.629 301.967 124.268 297.273 119.547C292.58 114.825 290.165 108.83 290.029 101.561C290.029 94.224 292.41 88.2287 297.171 83.5751C301.933 78.9215 308.055 76.5608 315.537 76.4928V76.4928ZM298.6 101.561C298.6 106.792 300.181 111.021 303.344 114.248C306.507 117.475 310.571 119.156 315.537 119.292C320.502 119.292 324.549 117.645 327.678 114.35C330.807 111.055 332.406 106.792 332.474 101.561C332.474 96.3979 330.892 92.1519 327.729 88.8231C324.566 85.4943 320.468 83.8299 315.435 83.8299C310.537 83.8299 306.524 85.4773 303.395 88.7722C300.266 92.067 298.668 96.33 298.6 101.561V101.561ZM376.857 76.4928C382.842 76.4928 387.366 78.2252 390.427 81.6899C393.487 85.1546 395.018 89.7742 395.018 95.5487V125.406H387.06V96.4658C387.06 92.7973 386.209 89.7912 384.509 87.4474C382.808 85.1036 380.02 83.8978 376.142 83.8299C371.245 83.8299 367.555 85.4433 365.072 88.6702C362.589 91.8972 361.348 96.3639 361.348 102.071V125.406H353.39V88.3136C353.39 87.9739 353.254 84.4413 352.982 77.7157H360.532C360.668 82.4711 360.736 85.0867 360.736 85.5622H360.94C362.232 82.8448 364.324 80.6539 367.215 78.9895C370.106 77.325 373.32 76.4928 376.857 76.4928ZM414.812 53.2589C416.376 53.2589 417.736 53.8194 418.893 54.9403C420.049 56.0612 420.627 57.4369 420.627 59.0674C420.627 60.7658 420.083 62.1585 418.995 63.2454C417.907 64.3324 416.512 64.8759 414.812 64.8759C413.111 64.8759 411.717 64.3324 410.628 63.2454C409.54 62.1585 408.996 60.7658 408.996 59.0674C408.996 57.4369 409.574 56.0612 410.73 54.9403C411.887 53.8194 413.247 53.2589 414.812 53.2589ZM418.791 77.7157V125.406H410.832V77.7157H418.791ZM456.644 76.4928C464.194 76.4928 470.282 79.0064 474.907 84.0337L468.581 89.6383C465.384 85.766 461.371 83.8299 456.542 83.8299C451.576 83.8299 447.648 85.4433 444.757 88.6702C441.867 91.8972 440.421 96.1941 440.421 101.561C440.421 106.656 441.969 110.868 445.063 114.197C448.158 117.526 451.984 119.224 456.542 119.292C461.779 119.292 465.827 117.322 468.683 113.382L474.601 118.986C470.18 124.014 464.16 126.561 456.542 126.629C449.264 126.561 443.363 124.251 438.84 119.7C434.316 115.148 431.987 109.102 431.851 101.561C431.919 93.9522 434.299 87.872 438.993 83.3203C443.686 78.7687 449.57 76.4928 456.644 76.4928V76.4928ZM505.516 76.4928C512.59 76.4928 518.117 78.7177 522.096 83.1675C526.075 87.6173 528.099 93.9183 528.167 102.071V104.007H489.599C490.008 108.422 491.674 112.057 494.599 114.91C497.524 117.764 501.095 119.224 505.312 119.292C511.774 119.292 516.807 116.88 520.412 112.057L526.432 116.745C523.915 120.005 520.957 122.468 517.556 124.133C514.155 125.797 510.073 126.629 505.312 126.629C498.034 126.629 492.184 124.268 487.763 119.547C483.342 114.825 481.097 108.83 481.029 101.561C481.029 94.3598 483.291 88.4155 487.814 83.7279C492.337 79.0404 498.238 76.6287 505.516 76.4928V76.4928ZM519.596 97.2811C519.392 93.137 518.049 89.8591 515.566 87.4474C513.083 85.0357 509.597 83.8299 505.108 83.8299C501.027 83.8299 497.592 84.9848 494.803 87.2946C492.014 89.6044 490.28 92.9332 489.599 97.2811H519.596Z" fill="url(#paint1_linear)"/>
<path d="M244.113 149.86C245.118 149.86 246.056 149.397 246.677 148.585L247.468 149.172C246.666 150.243 245.434 150.852 244.113 150.852C241.786 150.852 239.9 148.968 239.9 146.645C239.9 144.332 241.786 142.448 244.113 142.448C245.446 142.448 246.677 143.069 247.479 144.14L246.677 144.727C246.067 143.903 245.13 143.441 244.113 143.441C242.328 143.441 240.894 144.874 240.894 146.645C240.894 148.427 242.328 149.86 244.113 149.86ZM260.533 142.448C262.849 142.448 264.746 144.332 264.746 146.656C264.746 148.968 262.849 150.841 260.533 150.841C258.218 150.841 256.332 148.968 256.332 146.656C256.332 144.332 258.218 142.448 260.533 142.448V142.448ZM260.533 149.848C262.295 149.848 263.719 148.404 263.719 146.656C263.719 144.896 262.295 143.441 260.533 143.441C258.771 143.441 257.348 144.896 257.348 146.656C257.348 148.404 258.771 149.848 260.533 149.848ZM279.405 150.728L275.102 144.377V150.728H274.085V142.696H275.192L279.484 149.047V142.696H280.501V150.728H279.405ZM289.794 142.696H290.89L293.42 149.273L295.961 142.696H297.045L293.951 150.728H292.9L289.794 142.696ZM306.022 150.728V142.696H311.105V143.666H307.039V145.55H310.586V146.554H307.039V149.736H311.004V150.728H306.022ZM323.742 146.453L326.848 150.728H325.685L322.612 146.509H321.46V150.728H320.489V142.696H323.279C323.787 142.696 324.261 142.899 324.623 143.26C324.984 143.621 325.188 144.095 325.188 144.603C325.188 145.494 324.566 146.238 323.742 146.453ZM321.46 143.666V145.539H323.279C323.798 145.539 324.216 145.122 324.216 144.603C324.216 144.084 323.798 143.666 323.279 143.666H321.46ZM338.333 150.807C338.062 150.807 337.79 150.773 337.519 150.717C336.684 150.548 335.859 150.13 335.125 149.499L335.791 148.743C336.39 149.262 337.056 149.611 337.723 149.747C338.287 149.871 338.841 149.826 339.281 149.623C339.575 149.487 340.083 149.149 340.083 148.461C340.083 147.615 339.18 147.31 338.299 147.141C338.22 147.13 336.955 146.87 336.446 146.577C335.769 146.171 335.407 145.562 335.407 144.817C335.407 144.4 335.543 144.005 335.78 143.655C336.017 143.339 336.345 143.08 336.729 142.899C337.293 142.629 337.96 142.55 338.638 142.662C339.372 142.787 340.117 143.136 340.772 143.678L340.128 144.456C338.965 143.497 337.836 143.475 337.158 143.791C336.695 144.005 336.424 144.4 336.424 144.806C336.424 145.573 337.079 145.866 338.118 146.092C338.547 146.193 339.439 146.34 339.97 146.645C340.705 147.051 341.089 147.682 341.089 148.461C341.089 148.923 340.964 149.352 340.705 149.724C340.467 150.063 340.106 150.322 339.699 150.525C339.27 150.74 338.83 150.807 338.333 150.807V150.807ZM355.86 150.728L354.968 148.393H351.681L350.789 150.728H349.704L352.799 142.696H353.849L356.956 150.728H355.86ZM354.572 147.4L353.33 144.152L352.076 147.4H354.572ZM367.661 150.728V143.689H365.537V142.696H370.801V143.689H368.677V150.728H367.661ZM380.625 150.728V142.696H381.642V150.728H380.625ZM395.408 142.448C397.723 142.448 399.621 144.332 399.621 146.656C399.621 148.968 397.723 150.841 395.408 150.841C393.092 150.841 391.206 148.968 391.206 146.656C391.206 144.332 393.092 142.448 395.408 142.448V142.448ZM395.408 149.848C397.17 149.848 398.593 148.404 398.593 146.656C398.593 144.896 397.17 143.441 395.408 143.441C393.646 143.441 392.223 144.896 392.223 146.656C392.223 148.404 393.646 149.848 395.408 149.848ZM414.279 150.728L409.976 144.377V150.728H408.959V142.696H410.066L414.358 149.047V142.696H415.375V150.728H414.279ZM430.44 150.728L429.548 148.393H426.261L425.369 150.728H424.284L427.379 142.696H428.43L431.536 150.728H430.44V150.728ZM429.152 147.4L427.91 144.152L426.656 147.4H429.152ZM440.66 150.728V142.696H441.676V149.747H446.081V150.728H440.66V150.728ZM465.809 150.728V142.696H468.7C469.209 142.696 469.694 142.899 470.044 143.26C470.406 143.61 470.609 144.095 470.609 144.603C470.609 144.998 470.496 145.37 470.27 145.686L470.259 145.697L470.27 145.708C470.587 145.832 470.88 146.024 471.117 146.272C471.614 146.757 471.885 147.412 471.885 148.111C471.885 148.799 471.614 149.454 471.117 149.95C470.632 150.435 469.977 150.728 469.288 150.728H465.809V150.728ZM466.814 149.747H469.288C470.169 149.724 470.88 148.98 470.88 148.111C470.88 147.231 470.169 146.509 469.288 146.498H466.814V149.747ZM466.814 145.517H468.7C469.197 145.505 469.604 145.099 469.604 144.603C469.604 144.106 469.209 143.7 468.7 143.678H466.814V145.517V145.517ZM484.884 142.448C487.199 142.448 489.097 144.332 489.097 146.656C489.097 148.968 487.199 150.841 484.884 150.841C482.568 150.841 480.682 148.968 480.682 146.656C480.682 144.332 482.568 142.448 484.884 142.448V142.448ZM484.884 149.848C486.646 149.848 488.069 148.404 488.069 146.656C488.069 144.896 486.646 143.441 484.884 143.441C483.122 143.441 481.698 144.896 481.698 146.656C481.698 148.404 483.122 149.848 484.884 149.848ZM499.96 150.728V143.689H497.837V142.696H503.1V143.689H500.977V150.728H499.96Z" fill="url(#paint2_linear)"/>
<defs>
<linearGradient id="paint0_linear" x1="27" y1="32" x2="157" y2="32" gradientUnits="userSpaceOnUse">
<stop stop-color="#00B3E0"/>
<stop offset="1" stop-color="#EFF1A4"/>
</linearGradient>
<linearGradient id="paint1_linear" x1="214.833" y1="53.2589" x2="528.167" y2="53.2589" gradientUnits="userSpaceOnUse">
<stop stop-color="#04B4DE"/>
<stop offset="1" stop-color="#EFF1A4"/>
</linearGradient>
<linearGradient id="paint2_linear" x1="239.9" y1="142.448" x2="503.1" y2="142.448" gradientUnits="userSpaceOnUse">
<stop stop-color="#00B3E0"/>
<stop offset="0.9997" stop-color="#FBF4A1"/>
<stop offset="0.9998" stop-color="#EFF1A4"/>
</linearGradient>
</defs>
</svg>
