<svg width="713" height="197" viewBox="0 0 713 197" fill="none" xmlns="http://www.w3.org/2000/svg">
<path d="M77.035 96.3462C87.0244 96.3462 95.153 88.2192 95.153 78.2318C95.153 68.2444 87.0244 60.1174 77.035 60.1174C67.0455 60.1174 58.9169 68.2444 58.9169 78.2318C58.9169 88.2192 67.0433 96.3462 77.035 96.3462ZM77.035 64.5523C84.5781 64.5523 90.7172 70.6903 90.7172 78.2318C90.7172 85.7734 84.5781 91.9113 77.035 91.9113C69.4919 91.9113 63.3527 85.7734 63.3527 78.2318C63.3527 70.6903 69.4897 64.5523 77.035 64.5523ZM121.757 96.14C118.851 96.14 116.489 98.5016 116.489 101.406C116.489 104.311 118.851 106.673 121.757 106.673C124.662 106.673 127.024 104.311 127.024 101.406C127.024 98.5016 124.66 96.14 121.757 96.14ZM118.707 124.967C116.516 124.967 114.733 126.75 114.733 128.941C114.733 131.131 116.516 132.914 118.707 132.914C120.898 132.914 122.682 131.131 122.682 128.941C122.682 126.75 120.896 124.967 118.707 124.967ZM95.153 115.266C95.153 117.793 93.097 119.849 90.5686 119.849C88.0402 119.849 85.982 117.793 85.982 115.266C85.982 112.738 88.0402 110.68 90.5686 110.68C93.097 110.68 95.153 112.738 95.153 115.266ZM24.5394 55.5339C28.5605 55.5339 31.8319 52.2632 31.8319 48.243C31.8319 44.2227 28.5605 40.952 24.5394 40.952C20.5184 40.952 17.247 44.2227 17.247 48.243C17.247 52.2632 20.5184 55.5339 24.5394 55.5339ZM24.5394 45.3869C26.1142 45.3869 27.3961 46.6686 27.3961 48.243C27.3961 49.8173 26.1142 51.099 24.5394 51.099C22.9647 51.099 21.6828 49.8173 21.6828 48.243C21.685 46.6686 22.9647 45.3869 24.5394 45.3869ZM14.2329 80.7575C14.2329 78.4137 16.1403 76.5066 18.4846 76.5066C20.8289 76.5066 22.7363 78.4137 22.7363 80.7575C22.7363 83.1014 20.8289 85.0084 18.4846 85.0084C16.1403 85.0061 14.2329 83.0991 14.2329 80.7575ZM38.8161 112.897C38.8161 108.822 35.4981 105.507 31.4238 105.507C27.3495 105.507 24.0315 108.824 24.0315 112.897C24.0315 116.971 27.3473 120.288 31.4238 120.288C35.5003 120.288 38.8161 116.973 38.8161 112.897ZM28.4651 112.897C28.4651 111.267 29.7914 109.941 31.4216 109.941C33.0518 109.941 34.3781 111.267 34.3781 112.897C34.3781 114.527 33.0518 115.853 31.4216 115.853C29.7914 115.853 28.4651 114.527 28.4651 112.897ZM169.271 92.8027H172.491C174.94 92.8027 176.927 90.8159 176.927 88.3678V65.7897C176.927 63.3416 174.94 61.3548 172.491 61.3548H166.385C167.922 54.2966 167.248 52.5537 166.929 51.7199L166.811 51.4184C164.888 46.4202 159.033 31.2129 148.103 19.9039C136.06 7.44178 112.226 0 84.3496 0C62.3547 0 41.9877 4.84736 29.8669 12.9655C-1.15938 33.7474 -1.58522 60.3636 0.949841 90.4766C3.61132 122.078 24.6015 138.52 31.7033 143.219V192.107C31.7033 194.555 33.6905 196.542 36.1391 196.542H116.429C118.842 196.542 120.812 194.615 120.865 192.202C121.009 185.572 121.36 177.554 121.686 175.771C122.424 172.902 124.791 171.334 126.079 170.334C127.681 170.19 145.528 169.91 150.341 169.728C154.16 169.584 157.798 165.719 161.151 158.242C161.404 157.681 161.535 157.073 161.539 156.459L161.759 126.446L170.322 125.752C173.649 125.537 179.852 123.435 182.015 116.929C182.731 114.782 183.093 113.696 169.271 92.8027ZM168.055 70.2246V83.9329L151.215 83.8974C150.552 83.23 149.203 81.3474 149.203 77.0765C149.203 72.6638 150.585 70.8344 151.164 70.2579L168.055 70.2246ZM126.146 131.837C126.758 133.886 127.148 136.624 125.538 138.021C123.899 139.442 120.872 139.238 119.772 138.733C117.392 137.64 103.452 124.056 99.9947 122.831C94.5076 120.889 87.967 124.366 85.5362 125.856L82.3646 124.231C81.7924 120.805 81.3044 116.725 80.7078 110.842C88.9141 110.993 118.177 94.6632 120.552 93.7873C121.036 93.8915 129.014 97.1312 134.062 98.5149C130.992 105.012 123.382 122.576 126.146 131.837ZM115.15 169.511H102.774C102.889 169.214 102.964 168.901 102.945 168.582L102.82 166.507H117.454C116.605 167.493 115.817 168.527 115.15 169.511ZM101.847 171.174H114.114C113.717 171.877 113.069 173.7 112.987 174.179H100.057L101.847 171.174ZM97.748 178.055L99.0654 175.844H112.761C112.67 176.685 112.586 177.694 112.506 178.849H97.7125L97.748 178.055ZM97.6415 180.512H112.404C112.353 181.432 112.304 182.439 112.257 183.517H97.5106L97.6415 180.512ZM118.951 164.894C118.871 164.87 118.794 164.846 118.705 164.846H102.718L102.539 161.841H115.728C117.17 162.681 118.523 163.453 119.745 164.14C119.479 164.38 119.215 164.633 118.951 164.894ZM102.439 160.176L102.259 157.171H108.017C109.7 158.229 111.344 159.235 112.916 160.176H102.439ZM102.159 155.51L102.024 153.275C103.153 154.038 104.284 154.783 105.406 155.51H102.159ZM97.3864 150.033L98.4754 168.167L93.6515 176.266C93.463 176.58 93.3565 176.937 93.341 177.303L92.8885 187.672H88.0713V180.201C88.0713 179.093 87.2506 178.153 86.1506 178.004L78.7228 176.999V172.188L85.5562 173.112C86.1971 173.199 86.8314 173.004 87.3127 172.585C87.794 172.163 88.0713 171.556 88.0713 170.915V162.628C88.0713 161.519 87.2506 160.579 86.1506 160.431L78.7228 159.426V154.98L85.5562 155.905C86.1971 155.994 86.8314 155.798 87.3127 155.377C87.794 154.956 88.0713 154.348 88.0713 153.707V145.421C88.0713 144.312 87.2506 143.372 86.1506 143.223L78.7228 142.216V137.853L84.0946 138.58C87.5057 142.389 92.2697 146.328 97.3864 150.033ZM69.4165 187.672V185.965C69.4165 184.856 68.5959 183.916 67.4958 183.767L60.068 182.76V178.951L66.8992 179.876C67.5401 179.958 68.1745 179.769 68.6557 179.348C69.137 178.926 69.4143 178.319 69.4143 177.678V168.391C69.4143 167.283 68.5936 166.342 67.4936 166.194L60.0658 165.187V161.378L66.8969 162.302C67.5379 162.393 68.1722 162.196 68.6535 161.774C69.1348 161.353 69.412 160.746 69.412 160.105V151.184C69.412 150.075 68.5914 149.135 67.4913 148.986L60.0636 147.982V144.172L66.8947 145.097C67.5357 145.183 68.17 144.988 68.6513 144.569C69.1326 144.148 69.4098 143.54 69.4098 142.899V134.058C69.4098 132.95 68.5892 132.01 67.4891 131.861L60.0614 130.854V127.045L66.8925 127.969C67.5335 128.054 68.1678 127.863 68.6491 127.442C69.1304 127.02 69.4076 126.413 69.4076 125.772V123.251C70.8847 124.166 83.6266 130.333 83.6266 130.333V134.043L76.7932 133.118C76.1589 133.036 75.5179 133.225 75.0366 133.646C74.5554 134.067 74.2781 134.675 74.2781 135.316V144.157C74.2781 145.265 75.0987 146.206 76.1988 146.354L83.6266 147.361V151.171L76.7932 150.246C76.1589 150.164 75.5179 150.352 75.0366 150.774C74.5554 151.195 74.2781 151.803 74.2781 152.443V161.364C74.2781 162.473 75.0987 163.413 76.1988 163.562L83.6266 164.566V168.376L76.7932 167.451C76.1589 167.36 75.5179 167.558 75.0366 167.979C74.5554 168.4 74.2781 169.008 74.2781 169.649V178.938C74.2781 180.046 75.0987 180.986 76.1988 181.135L83.6266 182.14V185.949L76.7932 185.024C76.1589 184.94 75.5179 185.133 75.0366 185.552C74.5554 185.974 74.2781 186.581 74.2781 187.222V187.672H69.4165ZM46.5056 124.011L47.1953 126.914H44.3165C44.9442 125.887 45.6694 124.911 46.5056 124.011ZM47.6966 145.587H40.5749V142.582H48.5416L47.6966 145.587ZM44.8222 160.176H40.5749V157.171H45.3256L44.8222 160.176ZM44.5449 161.839L44.23 163.728C44.1723 164.074 44.1967 164.427 44.3032 164.759L44.3298 164.843H40.5771V161.839H44.5449ZM44.851 166.507L45.798 169.511H40.5749V166.507H44.851ZM45.6029 155.51H40.5749V151.918H46.2039L45.6029 155.51ZM40.5749 175.844H47.2752L47.5347 178.849H40.5749V175.844ZM40.5749 174.181V171.176H46.3215L47.08 173.585L47.131 174.183H40.5749V174.181ZM46.6608 149.268C46.6386 149.346 46.6209 149.423 46.6098 149.501L46.4834 150.255H40.5771V147.25H47.2308L46.6608 149.268ZM49.8324 137.994L49.0096 140.919H40.5749V140.749C40.5749 140.296 40.4618 138.513 40.5527 137.915H49.8124L49.8324 137.994ZM40.8477 136.249C41.0318 135.322 41.2647 134.311 41.5752 133.245H48.7035L49.4177 136.249H40.8477ZM43.3938 128.577H47.5923L48.3065 131.582H42.1097C42.4623 130.586 42.897 129.575 43.3938 128.577ZM40.5749 180.512H47.6788L47.9383 183.517H40.5749V180.512ZM51.4781 172.959C51.4648 172.797 51.4315 172.638 51.3849 172.485L48.6924 163.936L54.2593 138.64C54.3614 138.276 54.368 137.895 54.2815 137.527L50.3603 121.049C53.4742 118.782 60.9596 119.29 64.9829 120.969V123.231L58.1518 122.306C57.5152 122.222 56.8765 122.415 56.3952 122.834C55.9139 123.255 55.6367 123.863 55.6367 124.503V132.79C55.6367 133.899 56.4573 134.839 57.5574 134.988L64.9851 135.994V140.36L58.154 139.436C57.5174 139.352 56.8787 139.544 56.3974 139.964C55.9161 140.385 55.6389 140.992 55.6389 141.633V149.918C55.6389 151.026 56.4595 151.967 57.5596 152.115L64.9873 153.122V157.568L58.1562 156.643C57.5197 156.555 56.8809 156.75 56.3996 157.171C55.9183 157.592 55.6411 158.2 55.6411 158.841V167.127C55.6411 168.236 56.4617 169.176 57.5618 169.325L64.9896 170.329V175.141L58.1584 174.217C57.5219 174.128 56.8831 174.323 56.4018 174.744C55.9205 175.166 55.6433 175.773 55.6433 176.414V184.701C55.6433 185.809 56.4639 186.75 57.564 186.898L63.2862 187.672H52.7578L51.4781 172.959ZM48.6347 78.2318C48.6347 67.9584 54.0442 58.6916 62.8648 53.6247C65.1027 56.8289 68.811 58.9355 73.0073 58.9355C78.3125 58.9355 82.8326 55.5739 84.5869 50.8729C96.7676 54.2301 105.435 65.4349 105.435 78.2318C105.435 97.0691 86.5121 106.626 77.035 106.626C61.3744 106.626 48.6347 93.8893 48.6347 78.2318ZM49.5552 13.644C54.9114 11.9831 60.9264 10.728 67.3494 9.92089C67.4847 13.8059 67.7908 19.0102 68.4717 21.4007C70.0286 26.8645 72.0136 31.1508 73.7436 34.2442C70.1661 34.069 66.948 35.7409 65.992 36.4017C63.7808 34.1045 52.1812 19.2741 49.5552 13.644ZM85.3721 46.5023C85.3521 42.7126 83.6177 39.3221 80.9074 37.067C80.6258 36.7233 79.6233 35.4482 78.3413 33.3128C80.8631 33.7031 83.4381 34.2774 86.0441 35.0668C99.9614 39.28 104.57 49.6355 105.395 51.7909C104.548 53.6535 103.515 55.4918 102.279 57.2902C97.9941 52.1235 92.1389 48.2762 85.3721 46.5023ZM65.076 46.571C65.076 42.1982 68.6336 38.6414 73.0073 38.6414C77.381 38.6414 80.9385 42.1982 80.9385 46.571C80.9385 50.9438 77.381 54.5006 73.0073 54.5006C68.6336 54.5006 65.076 50.9416 65.076 46.571ZM138.214 95.0047C131.72 93.4502 124.338 90.4522 124.077 90.3458C126.887 86.1969 131.817 77.7506 131.595 69.7456C131.278 58.2193 136.331 54.5649 137.754 53.7644L158.439 55.2279C158.23 57.1549 157.405 61.0554 156.429 64.61C156.321 65.0091 156.285 65.4149 156.289 65.8185H150.45C150.117 65.8185 144.765 68.5504 144.765 77.0721C144.765 85.3144 148.919 87.8024 149.392 88.0596C149.716 88.2348 150.079 88.3279 150.45 88.3279H155.737C153.023 90.9911 145.965 96.8673 138.214 95.0047ZM156.966 50.6799L137.484 49.3007C137.158 49.2807 126.709 53.3786 127.164 69.8676C127.386 77.9458 120.921 87.2369 119.166 89.6051C117.108 90.3724 111.313 93.0843 104.335 96.4416C107.826 91.2261 109.871 84.964 109.871 78.2318C109.871 71.9742 108.057 66.058 104.925 61.0022C105.078 60.8802 105.253 60.7871 105.375 60.6208C117.667 43.624 113.224 23.1901 104.985 10.4509C121.12 12.9965 134.414 18.5002 141.725 26.0662C149.403 34.0158 154.362 44.4267 156.966 50.6799ZM98.97 9.65036C105.77 18.0967 110.962 32.2706 107.431 46.0188C104.552 41.2602 98.5996 34.2331 87.3283 30.8204C83.4203 29.6363 79.5589 28.8801 75.824 28.532C74.7461 26.197 71.1708 17.5179 71.7741 9.44192C75.8506 9.07161 94.2659 9.14478 98.97 9.65036ZM45.2901 15.1142C47.1199 19.691 53.0151 28.1395 55.4504 31.1641C47.4504 34.1244 42.3847 38.8055 39.8341 41.7414L28.7135 24.8821C30.5788 23.3321 41.2957 16.6198 45.2901 15.1142ZM25.3601 27.8535L37.8424 46.7772C38.255 47.4003 38.9492 47.7729 39.6944 47.7729C39.7033 47.7729 39.7143 47.7751 39.7254 47.7729C41.8901 47.4779 46.785 38.5593 58.5022 34.7919C60.3918 36.9539 62.002 38.6569 62.8537 39.5372C59.4603 44.5332 60.7866 48.6155 61.0306 49.5801C45.0173 59.3724 43.4471 74.7105 44.556 82.8153L11.2786 99.1003C8.65483 77.4823 4.35654 45.2605 25.3601 27.8535ZM12.4608 103.46L45.4986 87.2923C49.3755 100.761 61.6472 110.684 76.2676 111.024C76.76 115.904 76.9263 118.463 77.4076 121.741C77.4076 121.741 58.2094 108.252 44.2145 118.964C38.7096 123.18 37.1549 131.686 36.4097 135.704C31.497 132.435 18.3449 122.237 12.4608 103.46ZM40.5749 185.18H48.0803L48.2954 187.672H40.5749V185.18ZM97.3288 187.672L97.4375 185.18H112.191C112.162 185.98 112.133 186.798 112.107 187.672H97.3288ZM156.993 117.933C154.701 118.119 152.932 120.024 152.916 122.321L152.677 155.426C151.576 157.685 150.363 160.404 149.241 160.892C145.131 162.681 126.456 161.965 124.864 162.207C116.534 157.615 97.2512 146.119 88.0735 136.356V129.497C90.4888 128.034 95.2062 125.838 98.5131 127.009C101.055 127.909 114.797 141.463 117.92 142.762C122.46 144.651 126.61 142.964 128.446 141.369C130.32 139.742 132.181 136.549 130.398 130.568C128.193 123.18 134.92 106.875 138.484 99.5393C147.243 100.95 154.677 95.4149 158.179 92.1486C164.356 101.402 173.37 110.984 172.928 115.323C172.751 117.068 156.993 117.933 156.993 117.933Z" fill="url(#paint0_linear)"/>
<path d="M712.338 170.054H677.189V174.441H712.338V170.054Z" fill="#1FAAC6"/>
<path d="M286.15 170.054H251V174.441H286.15V170.054Z" fill="#422F3A"/>
<path d="M277.15 29L335.809 113.004H336.095V29H348.113V130.148H332.947L274.288 46.1437H274.002V130.148H261.984V29H277.15ZM403.195 61.573C413.591 61.573 422.08 64.7875 428.661 71.2164C435.243 77.6453 438.676 86.1457 438.962 96.7176C438.962 106.909 435.624 115.266 428.947 121.79C422.271 128.314 413.687 131.672 403.195 131.862C392.703 131.862 384.166 128.553 377.585 121.933C371.004 115.314 367.618 106.909 367.427 96.7176C367.427 86.4314 370.765 78.0262 377.442 71.5021C384.119 64.978 392.703 61.6683 403.195 61.573ZM379.445 96.7176C379.445 104.051 381.663 109.98 386.098 114.504C390.533 119.028 396.232 121.386 403.195 121.576C410.158 121.576 415.833 119.266 420.22 114.647C424.608 110.028 426.849 104.051 426.944 96.7176C426.944 89.4792 424.727 83.5265 420.292 78.8596C415.857 74.1927 410.11 71.8593 403.052 71.8593C396.184 71.8593 390.557 74.1689 386.169 78.7882C381.782 83.4074 379.54 89.3839 379.445 96.7176ZM489.18 61.573C497.574 61.573 503.916 64.0017 508.209 68.8591C512.501 73.7165 514.647 80.193 514.647 88.2886V130.148H503.487V89.5744C503.487 84.4313 502.295 80.2168 499.91 76.9309C497.526 73.6451 493.615 71.9545 488.179 71.8593C481.311 71.8593 476.137 74.1213 472.656 78.6453C469.174 83.1693 467.433 89.4316 467.433 97.4319V130.148H456.274V78.1453C456.274 77.6691 456.083 72.7164 455.702 63.2874H466.289C466.48 69.9544 466.575 73.6213 466.575 74.2879H466.861C468.673 70.4782 471.606 67.4067 475.66 65.0732C479.714 62.7398 484.22 61.573 489.18 61.573ZM542.402 29C544.596 29 546.504 29.7858 548.125 31.3573C549.747 32.9288 550.557 34.8574 550.557 37.1433C550.557 39.5243 549.794 41.4768 548.268 43.0007C546.742 44.5246 544.787 45.2865 542.402 45.2865C540.018 45.2865 538.063 44.5246 536.537 43.0007C535.01 41.4768 534.247 39.5243 534.247 37.1433C534.247 34.8574 535.058 32.9288 536.68 31.3573C538.301 29.7858 540.209 29 542.402 29ZM547.982 63.2874V130.148H536.823V63.2874H547.982ZM601.061 61.573C611.649 61.573 620.185 65.097 626.671 72.145L617.801 80.0025C613.318 74.5737 607.69 71.8593 600.918 71.8593C593.956 71.8593 588.447 74.1213 584.394 78.6453C580.34 83.1693 578.313 89.1934 578.313 96.7176C578.313 103.861 580.483 109.766 584.823 114.433C589.163 119.1 594.528 121.481 600.918 121.576C608.263 121.576 613.938 118.814 617.944 113.29L626.242 121.147C620.042 128.195 611.601 131.767 600.918 131.862C590.713 131.767 582.438 128.529 576.096 122.147C569.753 115.766 566.486 107.29 566.295 96.7176C566.391 86.0504 569.729 77.5262 576.31 71.1449C582.891 64.7637 591.142 61.573 601.061 61.573ZM669.592 61.573C679.512 61.573 687.261 64.6922 692.841 70.9306C698.421 77.169 701.258 86.0028 701.354 97.4319V100.146H647.273C647.845 106.337 650.182 111.433 654.284 115.433C658.385 119.433 663.392 121.481 669.306 121.576C678.367 121.576 685.425 118.195 690.48 111.433L698.922 118.004C695.393 122.576 691.244 126.029 686.474 128.362C681.705 130.695 675.983 131.862 669.306 131.862C659.1 131.862 650.898 128.553 644.698 121.933C638.498 115.314 635.351 106.909 635.255 96.7176C635.255 86.6219 638.427 78.2881 644.769 71.7164C651.112 65.1446 659.387 61.7635 669.592 61.573ZM689.336 90.7173C689.05 84.9075 687.166 80.3121 683.685 76.9309C680.203 73.5498 675.315 71.8593 669.02 71.8593C663.297 71.8593 658.48 73.4784 654.57 76.7166C650.659 79.9549 648.227 84.6218 647.273 90.7173H689.336Z" fill="url(#paint1_linear)"/>
<path d="M303.041 164.43C304.451 164.43 305.766 163.782 306.637 162.643L307.745 163.466C306.621 164.968 304.894 165.822 303.041 165.822C299.779 165.822 297.134 163.181 297.134 159.923C297.134 156.681 299.779 154.04 303.041 154.04C304.91 154.04 306.637 154.91 307.761 156.412L306.637 157.234C305.781 156.08 304.467 155.432 303.041 155.432C300.539 155.432 298.528 157.44 298.528 159.923C298.528 162.422 300.539 164.43 303.041 164.43ZM326.067 154.04C329.314 154.04 331.975 156.681 331.975 159.939C331.975 163.181 329.314 165.806 326.067 165.806C322.82 165.806 320.175 163.181 320.175 159.939C320.175 156.681 322.82 154.04 326.067 154.04ZM326.067 164.415C328.538 164.415 330.533 162.39 330.533 159.939C330.533 157.472 328.538 155.432 326.067 155.432C323.596 155.432 321.601 157.472 321.601 159.939C321.601 162.39 323.596 164.415 326.067 164.415ZM352.529 165.648L346.495 156.744V165.648H345.07V154.388H346.622L352.64 163.292V154.388H354.066V165.648H352.529ZM367.097 154.388H368.634L372.181 163.608L375.745 154.388H377.265L372.926 165.648H371.453L367.097 154.388ZM389.854 165.648V154.388H396.981V155.748H391.279V158.389H396.252V159.797H391.279V164.256H396.838V165.648H389.854ZM414.701 159.654L419.056 165.648H417.425L413.117 159.733H411.501V165.648H410.139V154.388H414.051C414.764 154.388 415.429 154.672 415.936 155.178C416.443 155.685 416.728 156.349 416.728 157.061C416.728 158.31 415.857 159.354 414.701 159.654ZM411.501 155.748V158.373H414.051C414.78 158.373 415.366 157.788 415.366 157.061C415.366 156.333 414.78 155.748 414.051 155.748H411.501ZM435.16 165.759C434.78 165.759 434.4 165.711 434.02 165.632C432.848 165.395 431.692 164.81 430.662 163.924L431.597 162.865C432.436 163.592 433.371 164.083 434.305 164.272C435.097 164.446 435.873 164.383 436.491 164.098C436.902 163.909 437.615 163.434 437.615 162.469C437.615 161.283 436.348 160.856 435.113 160.619C435.002 160.603 433.228 160.239 432.515 159.828C431.565 159.259 431.058 158.405 431.058 157.361C431.058 156.776 431.248 156.222 431.581 155.732C431.913 155.289 432.373 154.925 432.911 154.672C433.703 154.293 434.638 154.182 435.588 154.34C436.617 154.514 437.663 155.005 438.581 155.764L437.679 156.855C436.047 155.511 434.463 155.479 433.513 155.922C432.864 156.222 432.484 156.776 432.484 157.345C432.484 158.421 433.402 158.832 434.859 159.148C435.461 159.29 436.712 159.496 437.457 159.923C438.486 160.492 439.025 161.378 439.025 162.469C439.025 163.118 438.851 163.719 438.486 164.241C438.154 164.715 437.647 165.079 437.077 165.364C436.475 165.664 435.857 165.759 435.16 165.759ZM459.738 165.648L458.487 162.374H453.878L452.627 165.648H451.106L455.446 154.388H456.919L461.274 165.648H459.738ZM457.932 160.983L456.19 156.428L454.432 160.983H457.932ZM476.286 165.648V155.779H473.308V154.388H480.689V155.779H477.711V165.648H476.286ZM494.465 165.648V154.388H495.89V165.648H494.465ZM515.194 154.04C518.441 154.04 521.101 156.681 521.101 159.939C521.101 163.181 518.441 165.806 515.194 165.806C511.947 165.806 509.302 163.181 509.302 159.939C509.302 156.681 511.947 154.04 515.194 154.04ZM515.194 164.415C517.664 164.415 519.66 162.39 519.66 159.939C519.66 157.472 517.664 155.432 515.194 155.432C512.723 155.432 510.727 157.472 510.727 159.939C510.727 162.39 512.723 164.415 515.194 164.415ZM541.656 165.648L535.622 156.744V165.648H534.196V154.388H535.749L541.767 163.292V154.388H543.192V165.648H541.656ZM564.317 165.648L563.066 162.374H558.457L557.206 165.648H555.686L560.025 154.388H561.498L565.854 165.648H564.317ZM562.512 160.983L560.77 156.428L559.012 160.983H562.512ZM578.648 165.648V154.388H580.073V164.272H586.25V165.648H578.648ZM613.913 165.648V154.388H617.968C618.68 154.388 619.361 154.672 619.852 155.178C620.359 155.669 620.644 156.349 620.644 157.061C620.644 157.614 620.486 158.136 620.169 158.579L620.153 158.595L620.169 158.61C620.613 158.784 621.024 159.053 621.357 159.401C622.054 160.081 622.434 160.999 622.434 161.979C622.434 162.944 622.054 163.861 621.357 164.557C620.676 165.237 619.757 165.648 618.791 165.648H613.913ZM615.323 164.272H618.791C620.027 164.241 621.024 163.197 621.024 161.979C621.024 160.745 620.027 159.733 618.791 159.717H615.323V164.272ZM615.323 158.342H617.968C618.664 158.326 619.235 157.756 619.235 157.061C619.235 156.365 618.68 155.795 617.968 155.764H615.323V158.342ZM640.661 154.04C643.907 154.04 646.568 156.681 646.568 159.939C646.568 163.181 643.907 165.806 640.661 165.806C637.414 165.806 634.769 163.181 634.769 159.939C634.769 156.681 637.414 154.04 640.661 154.04ZM640.661 164.415C643.131 164.415 645.127 162.39 645.127 159.939C645.127 157.472 643.131 155.432 640.661 155.432C638.19 155.432 636.194 157.472 636.194 159.939C636.194 162.39 638.19 164.415 640.661 164.415ZM661.801 165.648V155.779H658.824V154.388H666.204V155.779H663.227V165.648H661.801Z" fill="url(#paint2_linear)"/>
<defs>
<linearGradient id="paint0_linear" x1="0" y1="0" x2="182.292" y2="0" gradientUnits="userSpaceOnUse">
<stop stop-color="#452732"/>
<stop offset="1" stop-color="#1BBAD8"/>
</linearGradient>
<linearGradient id="paint1_linear" x1="261.984" y1="29" x2="701.354" y2="29" gradientUnits="userSpaceOnUse">
<stop offset="0.0001" stop-color="#432C37"/>
<stop offset="1" stop-color="#1FABC7"/>
</linearGradient>
<linearGradient id="paint2_linear" x1="297.134" y1="154.04" x2="666.204" y2="154.04" gradientUnits="userSpaceOnUse">
<stop stop-color="#422D38"/>
<stop offset="1" stop-color="#1FA9C5"/>
</linearGradient>
</defs>
</svg>
